<?xml version="1.0" encoding="utf-8" standalone="no"?>
<!DOCTYPE svg PUBLIC "-//W3C//DTD SVG 1.1//EN"
  "http://www.w3.org/Graphics/SVG/1.1/DTD/svg11.dtd">
<svg xmlns:xlink="http://www.w3.org/1999/xlink" width="720pt" height="360pt" viewBox="0 0 720 360" xmlns="http://www.w3.org/2000/svg" version="1.1">
 <metadata>
  <rdf:RDF xmlns:dc="http://purl.org/dc/elements/1.1/" xmlns:cc="http://creativecommons.org/ns#" xmlns:rdf="http://www.w3.org/1999/02/22-rdf-syntax-ns#">
   <cc:Work>
    <dc:type rdf:resource="http://purl.org/dc/dcmitype/StillImage"/>
    <dc:date>2026-09-19T11:25:37.339438</dc:date>
    <dc:format>image/svg+xml</dc:format>
    <dc:creator>
     <cc:Agent>
      <dc:title>Matplotlib v3.10.6, https://matplotlib.org/</dc:title>
     </cc:Agent>
    </dc:creator>
   </cc:Work>
  </rdf:RDF>
 </metadata>
 <defs>
  <style type="text/css">*{stroke-linejoin: round; stroke-linecap: butt}</style>
 </defs>
 <g id="figure_1">
  <g id="patch_1">
   <path d="M 0 360 
L 720 360 
L 720 0 
L 0 0 
z
" style="fill: #ffffff"/>
  </g>
  <g id="axes_1">
   <g id="patch_2">
    <path d="M 90 320.4 
L 648 320.4 
L 648 43.2 
L 90 43.2 
z
" style="fill: #ffffff"/>
   </g>
   <g id="matplotlib.axis_1">
    <g id="xtick_1">
     <g id="line2d_1">
      <defs>
       <path id="mb7c69b5ca3" d="M 0 0 
L 0 3.5 
" style="stroke: #000000; stroke-width: 0.8"/>
      </defs>
      <g>
       <use xlink:href="#mb7c69b5ca3" x="113.853896" y="320.4" style="stroke: #000000; stroke-width: 0.8"/>
      </g>
     </g>
     <g id="text_1">
      <!-- 0 -->
      <g transform="translate(110.672646 334.998438) scale(0.1 -0.1)">
       <defs>
        <path id="DejaVuSans-30" d="M 2034 4250 
Q 1547 4250 1301 3770 
Q 1056 3291 1056 2328 
Q 1056 1369 1301 889 
Q 1547 409 2034 409 
Q 2525 409 2770 889 
Q 3016 1369 3016 2328 
Q 3016 3291 2770 3770 
Q 2525 4250 2034 4250 
z
M 2034 4750 
Q 2819 4750 3233 4129 
Q 3647 3509 3647 2328 
Q 3647 1150 3233 529 
Q 2819 -91 2034 -91 
Q 1250 -91 836 529 
Q 422 1150 422 2328 
Q 422 3509 836 4129 
Q 1250 4750 2034 4750 
z
" transform="scale(0.015625)"/>
       </defs>
       <use xlink:href="#DejaVuSans-30"/>
      </g>
     </g>
    </g>
    <g id="xtick_2">
     <g id="line2d_2">
      <g>
       <use xlink:href="#mb7c69b5ca3" x="189.340909" y="320.4" style="stroke: #000000; stroke-width: 0.8"/>
      </g>
     </g>
     <g id="text_2">
      <!-- 50 -->
      <g transform="translate(182.978409 334.998438) scale(0.1 -0.1)">
       <defs>
        <path id="DejaVuSans-35" d="M 691 4666 
L 3169 4666 
L 3169 4134 
L 1269 4134 
L 1269 2991 
Q 1406 3038 1543 3061 
Q 1681 3084 1819 3084 
Q 2600 3084 3056 2656 
Q 3513 2228 3513 1497 
Q 3513 744 3044 326 
Q 2575 -91 1722 -91 
Q 1428 -91 1123 -41 
Q 819 9 494 109 
L 494 744 
Q 775 591 1075 516 
Q 1375 441 1709 441 
Q 2250 441 2565 725 
Q 2881 1009 2881 1497 
Q 2881 1984 2565 2268 
Q 2250 2553 1709 2553 
Q 1456 2553 1204 2497 
Q 953 2441 691 2322 
L 691 4666 
z
" transform="scale(0.015625)"/>
       </defs>
       <use xlink:href="#DejaVuSans-35"/>
       <use xlink:href="#DejaVuSans-30" transform="translate(63.623047 0)"/>
      </g>
     </g>
    </g>
    <g id="xtick_3">
     <g id="line2d_3">
      <g>
       <use xlink:href="#mb7c69b5ca3" x="264.827922" y="320.4" style="stroke: #000000; stroke-width: 0.8"/>
      </g>
     </g>
     <g id="text_3">
      <!-- 100 -->
      <g transform="translate(255.284172 334.998438) scale(0.1 -0.1)">
       <defs>
        <path id="DejaVuSans-31" d="M 794 531 
L 1825 531 
L 1825 4091 
L 703 3866 
L 703 4441 
L 1819 4666 
L 2450 4666 
L 2450 531 
L 3481 531 
L 3481 0 
L 794 0 
L 794 531 
z
" transform="scale(0.015625)"/>
       </defs>
       <use xlink:href="#DejaVuSans-31"/>
       <use xlink:href="#DejaVuSans-30" transform="translate(63.623047 0)"/>
       <use xlink:href="#DejaVuSans-30" transform="translate(127.246094 0)"/>
      </g>
     </g>
    </g>
    <g id="xtick_4">
     <g id="line2d_4">
      <g>
       <use xlink:href="#mb7c69b5ca3" x="340.314935" y="320.4" style="stroke: #000000; stroke-width: 0.8"/>
      </g>
     </g>
     <g id="text_4">
      <!-- 150 -->
      <g transform="translate(330.771185 334.998438) scale(0.1 -0.1)">
       <use xlink:href="#DejaVuSans-31"/>
       <use xlink:href="#DejaVuSans-35" transform="translate(63.623047 0)"/>
       <use xlink:href="#DejaVuSans-30" transform="translate(127.246094 0)"/>
      </g>
     </g>
    </g>
    <g id="xtick_5">
     <g id="line2d_5">
      <g>
       <use xlink:href="#mb7c69b5ca3" x="415.801948" y="320.4" style="stroke: #000000; stroke-width: 0.8"/>
      </g>
     </g>
     <g id="text_5">
      <!-- 200 -->
      <g transform="translate(406.258198 334.998438) scale(0.1 -0.1)">
       <defs>
        <path id="DejaVuSans-32" d="M 1228 531 
L 3431 531 
L 3431 0 
L 469 0 
L 469 531 
Q 828 903 1448 1529 
Q 2069 2156 2228 2338 
Q 2531 2678 2651 2914 
Q 2772 3150 2772 3378 
Q 2772 3750 2511 3984 
Q 2250 4219 1831 4219 
Q 1534 4219 1204 4116 
Q 875 4013 500 3803 
L 500 4441 
Q 881 4594 1212 4672 
Q 1544 4750 1819 4750 
Q 2544 4750 2975 4387 
Q 3406 4025 3406 3419 
Q 3406 3131 3298 2873 
Q 3191 2616 2906 2266 
Q 2828 2175 2409 1742 
Q 1991 1309 1228 531 
z
" transform="scale(0.015625)"/>
       </defs>
       <use xlink:href="#DejaVuSans-32"/>
       <use xlink:href="#DejaVuSans-30" transform="translate(63.623047 0)"/>
       <use xlink:href="#DejaVuSans-30" transform="translate(127.246094 0)"/>
      </g>
     </g>
    </g>
    <g id="xtick_6">
     <g id="line2d_6">
      <g>
       <use xlink:href="#mb7c69b5ca3" x="491.288961" y="320.4" style="stroke: #000000; stroke-width: 0.8"/>
      </g>
     </g>
     <g id="text_6">
      <!-- 250 -->
      <g transform="translate(481.745211 334.998438) scale(0.1 -0.1)">
       <use xlink:href="#DejaVuSans-32"/>
       <use xlink:href="#DejaVuSans-35" transform="translate(63.623047 0)"/>
       <use xlink:href="#DejaVuSans-30" transform="translate(127.246094 0)"/>
      </g>
     </g>
    </g>
    <g id="xtick_7">
     <g id="line2d_7">
      <g>
       <use xlink:href="#mb7c69b5ca3" x="566.775974" y="320.4" style="stroke: #000000; stroke-width: 0.8"/>
      </g>
     </g>
     <g id="text_7">
      <!-- 300 -->
      <g transform="translate(557.232224 334.998438) scale(0.1 -0.1)">
       <defs>
        <path id="DejaVuSans-33" d="M 2597 2516 
Q 3050 2419 3304 2112 
Q 3559 1806 3559 1356 
Q 3559 666 3084 287 
Q 2609 -91 1734 -91 
Q 1441 -91 1130 -33 
Q 819 25 488 141 
L 488 750 
Q 750 597 1062 519 
Q 1375 441 1716 441 
Q 2309 441 2620 675 
Q 2931 909 2931 1356 
Q 2931 1769 2642 2001 
Q 2353 2234 1838 2234 
L 1294 2234 
L 1294 2753 
L 1863 2753 
Q 2328 2753 2575 2939 
Q 2822 3125 2822 3475 
Q 2822 3834 2567 4026 
Q 2313 4219 1838 4219 
Q 1578 4219 1281 4162 
Q 984 4106 628 3988 
L 628 4550 
Q 988 4650 1302 4700 
Q 1616 4750 1894 4750 
Q 2613 4750 3031 4423 
Q 3450 4097 3450 3541 
Q 3450 3153 3228 2886 
Q 3006 2619 2597 2516 
z
" transform="scale(0.015625)"/>
       </defs>
       <use xlink:href="#DejaVuSans-33"/>
       <use xlink:href="#DejaVuSans-30" transform="translate(63.623047 0)"/>
       <use xlink:href="#DejaVuSans-30" transform="translate(127.246094 0)"/>
      </g>
     </g>
    </g>
    <g id="xtick_8">
     <g id="line2d_8">
      <g>
       <use xlink:href="#mb7c69b5ca3" x="642.262987" y="320.4" style="stroke: #000000; stroke-width: 0.8"/>
      </g>
     </g>
     <g id="text_8">
      <!-- 350 -->
      <g transform="translate(632.719237 334.998438) scale(0.1 -0.1)">
       <use xlink:href="#DejaVuSans-33"/>
       <use xlink:href="#DejaVuSans-35" transform="translate(63.623047 0)"/>
       <use xlink:href="#DejaVuSans-30" transform="translate(127.246094 0)"/>
      </g>
     </g>
    </g>
    <g id="text_9">
     <!-- Iteration -->
     <g transform="translate(347.791406 348.676562) scale(0.1 -0.1)">
      <defs>
       <path id="DejaVuSans-49" d="M 628 4666 
L 1259 4666 
L 1259 0 
L 628 0 
L 628 4666 
z
" transform="scale(0.015625)"/>
       <path id="DejaVuSans-74" d="M 1172 4494 
L 1172 3500 
L 2356 3500 
L 2356 3053 
L 1172 3053 
L 1172 1153 
Q 1172 725 1289 603 
Q 1406 481 1766 481 
L 2356 481 
L 2356 0 
L 1766 0 
Q 1100 0 847 248 
Q 594 497 594 1153 
L 594 3053 
L 172 3053 
L 172 3500 
L 594 3500 
L 594 4494 
L 1172 4494 
z
" transform="scale(0.015625)"/>
       <path id="DejaVuSans-65" d="M 3597 1894 
L 3597 1613 
L 953 1613 
Q 991 1019 1311 708 
Q 1631 397 2203 397 
Q 2534 397 2845 478 
Q 3156 559 3463 722 
L 3463 178 
Q 3153 47 2828 -22 
Q 2503 -91 2169 -91 
Q 1331 -91 842 396 
Q 353 884 353 1716 
Q 353 2575 817 3079 
Q 1281 3584 2069 3584 
Q 2775 3584 3186 3129 
Q 3597 2675 3597 1894 
z
M 3022 2063 
Q 3016 2534 2758 2815 
Q 2500 3097 2075 3097 
Q 1594 3097 1305 2825 
Q 1016 2553 972 2059 
L 3022 2063 
z
" transform="scale(0.015625)"/>
       <path id="DejaVuSans-72" d="M 2631 2963 
Q 2534 3019 2420 3045 
Q 2306 3072 2169 3072 
Q 1681 3072 1420 2755 
Q 1159 2438 1159 1844 
L 1159 0 
L 581 0 
L 581 3500 
L 1159 3500 
L 1159 2956 
Q 1341 3275 1631 3429 
Q 1922 3584 2338 3584 
Q 2397 3584 2469 3576 
Q 2541 3569 2628 3553 
L 2631 2963 
z
" transform="scale(0.015625)"/>
       <path id="DejaVuSans-61" d="M 2194 1759 
Q 1497 1759 1228 1600 
Q 959 1441 959 1056 
Q 959 750 1161 570 
Q 1363 391 1709 391 
Q 2188 391 2477 730 
Q 2766 1069 2766 1631 
L 2766 1759 
L 2194 1759 
z
M 3341 1997 
L 3341 0 
L 2766 0 
L 2766 531 
Q 2569 213 2275 61 
Q 1981 -91 1556 -91 
Q 1019 -91 701 211 
Q 384 513 384 1019 
Q 384 1609 779 1909 
Q 1175 2209 1959 2209 
L 2766 2209 
L 2766 2266 
Q 2766 2663 2505 2880 
Q 2244 3097 1772 3097 
Q 1472 3097 1187 3025 
Q 903 2953 641 2809 
L 641 3341 
Q 956 3463 1253 3523 
Q 1550 3584 1831 3584 
Q 2591 3584 2966 3190 
Q 3341 2797 3341 1997 
z
" transform="scale(0.015625)"/>
       <path id="DejaVuSans-69" d="M 603 3500 
L 1178 3500 
L 1178 0 
L 603 0 
L 603 3500 
z
M 603 4863 
L 1178 4863 
L 1178 4134 
L 603 4134 
L 603 4863 
z
" transform="scale(0.015625)"/>
       <path id="DejaVuSans-6f" d="M 1959 3097 
Q 1497 3097 1228 2736 
Q 959 2375 959 1747 
Q 959 1119 1226 758 
Q 1494 397 1959 397 
Q 2419 397 2687 759 
Q 2956 1122 2956 1747 
Q 2956 2369 2687 2733 
Q 2419 3097 1959 3097 
z
M 1959 3584 
Q 2709 3584 3137 3096 
Q 3566 2609 3566 1747 
Q 3566 888 3137 398 
Q 2709 -91 1959 -91 
Q 1206 -91 779 398 
Q 353 888 353 1747 
Q 353 2609 779 3096 
Q 1206 3584 1959 3584 
z
" transform="scale(0.015625)"/>
       <path id="DejaVuSans-6e" d="M 3513 2113 
L 3513 0 
L 2938 0 
L 2938 2094 
Q 2938 2591 2744 2837 
Q 2550 3084 2163 3084 
Q 1697 3084 1428 2787 
Q 1159 2491 1159 1978 
L 1159 0 
L 581 0 
L 581 3500 
L 1159 3500 
L 1159 2956 
Q 1366 3272 1645 3428 
Q 1925 3584 2291 3584 
Q 2894 3584 3203 3211 
Q 3513 2838 3513 2113 
z
" transform="scale(0.015625)"/>
      </defs>
      <use xlink:href="#DejaVuSans-49"/>
      <use xlink:href="#DejaVuSans-74" transform="translate(29.492188 0)"/>
      <use xlink:href="#DejaVuSans-65" transform="translate(68.701172 0)"/>
      <use xlink:href="#DejaVuSans-72" transform="translate(130.224609 0)"/>
      <use xlink:href="#DejaVuSans-61" transform="translate(171.337891 0)"/>
      <use xlink:href="#DejaVuSans-74" transform="translate(232.617188 0)"/>
      <use xlink:href="#DejaVuSans-69" transform="translate(271.826172 0)"/>
      <use xlink:href="#DejaVuSans-6f" transform="translate(299.609375 0)"/>
      <use xlink:href="#DejaVuSans-6e" transform="translate(360.791016 0)"/>
     </g>
    </g>
   </g>
   <g id="matplotlib.axis_2">
    <g id="ytick_1">
     <g id="line2d_9">
      <defs>
       <path id="m4e8e981837" d="M 0 0 
L -3.5 0 
" style="stroke: #000000; stroke-width: 0.8"/>
      </defs>
      <g>
       <use xlink:href="#m4e8e981837" x="90" y="320.4" style="stroke: #000000; stroke-width: 0.8"/>
      </g>
     </g>
     <g id="text_10">
      <!-- 0.0 -->
      <g transform="translate(67.096875 324.199219) scale(0.1 -0.1)">
       <defs>
        <path id="DejaVuSans-2e" d="M 684 794 
L 1344 794 
L 1344 0 
L 684 0 
L 684 794 
z
" transform="scale(0.015625)"/>
       </defs>
       <use xlink:href="#DejaVuSans-30"/>
       <use xlink:href="#DejaVuSans-2e" transform="translate(63.623047 0)"/>
       <use xlink:href="#DejaVuSans-30" transform="translate(95.410156 0)"/>
      </g>
     </g>
    </g>
    <g id="ytick_2">
     <g id="line2d_10">
      <g>
       <use xlink:href="#m4e8e981837" x="90" y="289.419945" style="stroke: #000000; stroke-width: 0.8"/>
      </g>
     </g>
     <g id="text_11">
      <!-- 2.5 -->
      <g transform="translate(67.096875 293.219164) scale(0.1 -0.1)">
       <use xlink:href="#DejaVuSans-32"/>
       <use xlink:href="#DejaVuSans-2e" transform="translate(63.623047 0)"/>
       <use xlink:href="#DejaVuSans-35" transform="translate(95.410156 0)"/>
      </g>
     </g>
    </g>
    <g id="ytick_3">
     <g id="line2d_11">
      <g>
       <use xlink:href="#m4e8e981837" x="90" y="258.43989" style="stroke: #000000; stroke-width: 0.8"/>
      </g>
     </g>
     <g id="text_12">
      <!-- 5.0 -->
      <g transform="translate(67.096875 262.239109) scale(0.1 -0.1)">
       <use xlink:href="#DejaVuSans-35"/>
       <use xlink:href="#DejaVuSans-2e" transform="translate(63.623047 0)"/>
       <use xlink:href="#DejaVuSans-30" transform="translate(95.410156 0)"/>
      </g>
     </g>
    </g>
    <g id="ytick_4">
     <g id="line2d_12">
      <g>
       <use xlink:href="#m4e8e981837" x="90" y="227.459835" style="stroke: #000000; stroke-width: 0.8"/>
      </g>
     </g>
     <g id="text_13">
      <!-- 7.5 -->
      <g transform="translate(67.096875 231.259054) scale(0.1 -0.1)">
       <defs>
        <path id="DejaVuSans-37" d="M 525 4666 
L 3525 4666 
L 3525 4397 
L 1831 0 
L 1172 0 
L 2766 4134 
L 525 4134 
L 525 4666 
z
" transform="scale(0.015625)"/>
       </defs>
       <use xlink:href="#DejaVuSans-37"/>
       <use xlink:href="#DejaVuSans-2e" transform="translate(63.623047 0)"/>
       <use xlink:href="#DejaVuSans-35" transform="translate(95.410156 0)"/>
      </g>
     </g>
    </g>
    <g id="ytick_5">
     <g id="line2d_13">
      <g>
       <use xlink:href="#m4e8e981837" x="90" y="196.47978" style="stroke: #000000; stroke-width: 0.8"/>
      </g>
     </g>
     <g id="text_14">
      <!-- 10.0 -->
      <g transform="translate(60.734375 200.278999) scale(0.1 -0.1)">
       <use xlink:href="#DejaVuSans-31"/>
       <use xlink:href="#DejaVuSans-30" transform="translate(63.623047 0)"/>
       <use xlink:href="#DejaVuSans-2e" transform="translate(127.246094 0)"/>
       <use xlink:href="#DejaVuSans-30" transform="translate(159.033203 0)"/>
      </g>
     </g>
    </g>
    <g id="ytick_6">
     <g id="line2d_14">
      <g>
       <use xlink:href="#m4e8e981837" x="90" y="165.499725" style="stroke: #000000; stroke-width: 0.8"/>
      </g>
     </g>
     <g id="text_15">
      <!-- 12.5 -->
      <g transform="translate(60.734375 169.298944) scale(0.1 -0.1)">
       <use xlink:href="#DejaVuSans-31"/>
       <use xlink:href="#DejaVuSans-32" transform="translate(63.623047 0)"/>
       <use xlink:href="#DejaVuSans-2e" transform="translate(127.246094 0)"/>
       <use xlink:href="#DejaVuSans-35" transform="translate(159.033203 0)"/>
      </g>
     </g>
    </g>
    <g id="ytick_7">
     <g id="line2d_15">
      <g>
       <use xlink:href="#m4e8e981837" x="90" y="134.51967" style="stroke: #000000; stroke-width: 0.8"/>
      </g>
     </g>
     <g id="text_16">
      <!-- 15.0 -->
      <g transform="translate(60.734375 138.318889) scale(0.1 -0.1)">
       <use xlink:href="#DejaVuSans-31"/>
       <use xlink:href="#DejaVuSans-35" transform="translate(63.623047 0)"/>
       <use xlink:href="#DejaVuSans-2e" transform="translate(127.246094 0)"/>
       <use xlink:href="#DejaVuSans-30" transform="translate(159.033203 0)"/>
      </g>
     </g>
    </g>
    <g id="ytick_8">
     <g id="line2d_16">
      <g>
       <use xlink:href="#m4e8e981837" x="90" y="103.539615" style="stroke: #000000; stroke-width: 0.8"/>
      </g>
     </g>
     <g id="text_17">
      <!-- 17.5 -->
      <g transform="translate(60.734375 107.338834) scale(0.1 -0.1)">
       <use xlink:href="#DejaVuSans-31"/>
       <use xlink:href="#DejaVuSans-37" transform="translate(63.623047 0)"/>
       <use xlink:href="#DejaVuSans-2e" transform="translate(127.246094 0)"/>
       <use xlink:href="#DejaVuSans-35" transform="translate(159.033203 0)"/>
      </g>
     </g>
    </g>
    <g id="ytick_9">
     <g id="line2d_17">
      <g>
       <use xlink:href="#m4e8e981837" x="90" y="72.55956" style="stroke: #000000; stroke-width: 0.8"/>
      </g>
     </g>
     <g id="text_18">
      <!-- 20.0 -->
      <g transform="translate(60.734375 76.358779) scale(0.1 -0.1)">
       <use xlink:href="#DejaVuSans-32"/>
       <use xlink:href="#DejaVuSans-30" transform="translate(63.623047 0)"/>
       <use xlink:href="#DejaVuSans-2e" transform="translate(127.246094 0)"/>
       <use xlink:href="#DejaVuSans-30" transform="translate(159.033203 0)"/>
      </g>
     </g>
    </g>
    <g id="text_19">
     <!-- Time (ms) -->
     <g transform="translate(54.654687 206.999219) rotate(-90) scale(0.1 -0.1)">
      <defs>
       <path id="DejaVuSans-54" d="M -19 4666 
L 3928 4666 
L 3928 4134 
L 2272 4134 
L 2272 0 
L 1638 0 
L 1638 4134 
L -19 4134 
L -19 4666 
z
" transform="scale(0.015625)"/>
       <path id="DejaVuSans-6d" d="M 3328 2828 
Q 3544 3216 3844 3400 
Q 4144 3584 4550 3584 
Q 5097 3584 5394 3201 
Q 5691 2819 5691 2113 
L 5691 0 
L 5113 0 
L 5113 2094 
Q 5113 2597 4934 2840 
Q 4756 3084 4391 3084 
Q 3944 3084 3684 2787 
Q 3425 2491 3425 1978 
L 3425 0 
L 2847 0 
L 2847 2094 
Q 2847 2600 2669 2842 
Q 2491 3084 2119 3084 
Q 1678 3084 1418 2786 
Q 1159 2488 1159 1978 
L 1159 0 
L 581 0 
L 581 3500 
L 1159 3500 
L 1159 2956 
Q 1356 3278 1631 3431 
Q 1906 3584 2284 3584 
Q 2666 3584 2933 3390 
Q 3200 3197 3328 2828 
z
" transform="scale(0.015625)"/>
       <path id="DejaVuSans-20" transform="scale(0.015625)"/>
       <path id="DejaVuSans-28" d="M 1984 4856 
Q 1566 4138 1362 3434 
Q 1159 2731 1159 2009 
Q 1159 1288 1364 580 
Q 1569 -128 1984 -844 
L 1484 -844 
Q 1016 -109 783 600 
Q 550 1309 550 2009 
Q 550 2706 781 3412 
Q 1013 4119 1484 4856 
L 1984 4856 
z
" transform="scale(0.015625)"/>
       <path id="DejaVuSans-73" d="M 2834 3397 
L 2834 2853 
Q 2591 2978 2328 3040 
Q 2066 3103 1784 3103 
Q 1356 3103 1142 2972 
Q 928 2841 928 2578 
Q 928 2378 1081 2264 
Q 1234 2150 1697 2047 
L 1894 2003 
Q 2506 1872 2764 1633 
Q 3022 1394 3022 966 
Q 3022 478 2636 193 
Q 2250 -91 1575 -91 
Q 1294 -91 989 -36 
Q 684 19 347 128 
L 347 722 
Q 666 556 975 473 
Q 1284 391 1588 391 
Q 1994 391 2212 530 
Q 2431 669 2431 922 
Q 2431 1156 2273 1281 
Q 2116 1406 1581 1522 
L 1381 1569 
Q 847 1681 609 1914 
Q 372 2147 372 2553 
Q 372 3047 722 3315 
Q 1072 3584 1716 3584 
Q 2034 3584 2315 3537 
Q 2597 3491 2834 3397 
z
" transform="scale(0.015625)"/>
       <path id="DejaVuSans-29" d="M 513 4856 
L 1013 4856 
Q 1481 4119 1714 3412 
Q 1947 2706 1947 2009 
Q 1947 1309 1714 600 
Q 1481 -109 1013 -844 
L 513 -844 
Q 928 -128 1133 580 
Q 1338 1288 1338 2009 
Q 1338 2731 1133 3434 
Q 928 4138 513 4856 
z
" transform="scale(0.015625)"/>
      </defs>
      <use xlink:href="#DejaVuSans-54"/>
      <use xlink:href="#DejaVuSans-69" transform="translate(57.958984 0)"/>
      <use xlink:href="#DejaVuSans-6d" transform="translate(85.742188 0)"/>
      <use xlink:href="#DejaVuSans-65" transform="translate(183.154297 0)"/>
      <use xlink:href="#DejaVuSans-20" transform="translate(244.677734 0)"/>
      <use xlink:href="#DejaVuSans-28" transform="translate(276.464844 0)"/>
      <use xlink:href="#DejaVuSans-6d" transform="translate(315.478516 0)"/>
      <use xlink:href="#DejaVuSans-73" transform="translate(412.890625 0)"/>
      <use xlink:href="#DejaVuSans-29" transform="translate(464.990234 0)"/>
     </g>
    </g>
   </g>
   <g id="line2d_18">
    <path d="M 115.363636 91.147593 
L 116.873377 200.197387 
L 118.383117 198.958184 
L 119.892857 155.586107 
L 121.402597 182.848556 
L 122.912338 205.154195 
L 124.422078 208.871802 
L 125.931818 208.871802 
L 128.951299 198.958184 
L 130.461039 179.130949 
L 131.970779 197.718982 
L 133.480519 195.240578 
L 134.99026 197.718982 
L 136.5 194.001376 
L 138.00974 203.914993 
L 139.519481 196.47978 
L 141.029221 195.240578 
L 142.538961 197.718982 
L 144.048701 192.762173 
L 147.068182 195.240578 
L 148.577922 195.240578 
L 150.087662 191.522971 
L 151.597403 192.762173 
L 153.107143 175.413343 
L 154.616883 186.566162 
L 156.126623 201.436589 
L 157.636364 198.958184 
L 159.146104 207.6326 
L 160.655844 208.871802 
L 162.165584 208.871802 
L 163.675325 207.6326 
L 165.185065 207.6326 
L 166.694805 213.828611 
L 168.204545 208.871802 
L 169.714286 206.393398 
L 171.224026 197.718982 
L 172.733766 203.914993 
L 174.243506 202.675791 
L 175.753247 200.197387 
L 177.262987 180.370151 
L 178.772727 201.436589 
L 180.282468 200.197387 
L 181.792208 194.001376 
L 183.301948 203.914993 
L 184.811688 167.978129 
L 186.321429 145.67249 
L 187.831169 196.47978 
L 189.340909 10.59945 
L 190.850649 134.51967 
L 192.36039 118.410041 
L 193.87013 146.911692 
L 195.37987 169.217331 
L 196.88961 186.566162 
L 198.399351 73.798762 
L 199.909091 127.084457 
L 201.418831 141.954883 
L 202.928571 154.346905 
L 204.438312 196.47978 
L 205.948052 150.629298 
L 207.457792 202.675791 
L 208.967532 184.087758 
L 210.477273 191.522971 
L 211.987013 201.436589 
L 213.496753 155.586107 
L 215.006494 201.436589 
L 216.516234 180.370151 
L 218.025974 215.067813 
L 219.535714 185.32696 
L 221.045455 218.78542 
L 222.555195 180.370151 
L 224.064935 211.350206 
L 225.574675 82.473177 
L 225.991465 -1 
M 227.868768 -1 
L 228.594156 201.436589 
L 230.103896 191.522971 
L 231.613636 220.024622 
L 234.633117 195.240578 
L 236.142857 218.78542 
L 237.652597 213.828611 
L 239.162338 42.818707 
L 240.672078 203.914993 
L 242.181818 89.908391 
L 243.691558 194.001376 
L 245.201299 192.762173 
L 246.711039 210.111004 
L 248.220779 197.718982 
L 249.730519 171.695736 
L 251.24026 201.436589 
L 252.75 181.609354 
L 254.25974 203.914993 
L 255.769481 203.914993 
L 257.279221 187.805365 
L 258.788961 179.130949 
L 260.298701 212.589409 
L 261.808442 211.350206 
L 263.318182 203.914993 
L 264.827922 208.871802 
L 266.337662 202.675791 
L 267.847403 203.914993 
L 269.357143 208.871802 
L 270.866883 207.6326 
L 272.376623 210.111004 
L 273.886364 208.871802 
L 276.905844 203.914993 
L 278.415584 206.393398 
L 279.925325 203.914993 
L 281.435065 202.675791 
L 282.944805 197.718982 
L 284.454545 203.914993 
L 285.964286 207.6326 
L 287.474026 200.197387 
L 288.983766 200.197387 
L 290.493506 203.914993 
L 292.003247 211.350206 
L 293.512987 203.914993 
L 295.022727 207.6326 
L 296.532468 206.393398 
L 298.042208 212.589409 
L 299.551948 206.393398 
L 301.061688 210.111004 
L 302.571429 201.436589 
L 304.081169 205.154195 
L 305.590909 201.436589 
L 307.100649 210.111004 
L 308.61039 208.871802 
L 311.62987 208.871802 
L 313.13961 203.914993 
L 314.649351 208.871802 
L 316.159091 205.154195 
L 317.668831 207.6326 
L 319.178571 201.436589 
L 320.688312 205.154195 
L 322.198052 196.47978 
L 323.707792 205.154195 
L 325.217532 208.871802 
L 326.727273 216.307015 
L 328.237013 210.111004 
L 329.746753 215.067813 
L 331.256494 208.871802 
L 332.766234 218.78542 
L 334.275974 215.067813 
L 335.785714 198.958184 
L 337.295455 215.067813 
L 338.805195 211.350206 
L 340.314935 194.001376 
L 341.824675 197.718982 
L 343.334416 196.47978 
L 343.792688 -1 
M 345.895624 -1 
L 346.353896 196.47978 
L 347.863636 206.393398 
L 349.373377 213.828611 
L 350.883117 213.828611 
L 352.392857 200.197387 
L 353.902597 210.111004 
L 355.412338 207.6326 
L 356.922078 210.111004 
L 358.431818 207.6326 
L 361.451299 207.6326 
L 362.961039 205.154195 
L 364.470779 210.111004 
L 365.980519 206.393398 
L 367.49026 208.871802 
L 369 215.067813 
L 370.50974 212.589409 
L 372.019481 198.958184 
L 373.529221 186.566162 
L 375.038961 190.283769 
L 376.548701 190.283769 
L 378.058442 195.240578 
L 379.568182 194.001376 
L 381.077922 191.522971 
L 382.587662 192.762173 
L 384.097403 195.240578 
L 385.607143 200.197387 
L 387.116883 203.914993 
L 390.136364 198.958184 
L 391.646104 195.240578 
L 393.155844 203.914993 
L 394.665584 202.675791 
L 396.175325 203.914993 
L 397.685065 202.675791 
L 399.194805 205.154195 
L 400.704545 208.871802 
L 402.214286 206.393398 
L 403.724026 202.675791 
L 405.233766 211.350206 
L 406.743506 202.675791 
L 408.253247 200.197387 
L 409.762987 177.891747 
L 411.272727 185.32696 
L 412.782468 198.958184 
L 414.292208 202.675791 
L 415.801948 39.1011 
L 417.311688 190.283769 
L 418.821429 210.111004 
L 420.331169 211.350206 
L 421.840909 207.6326 
L 423.350649 206.393398 
L 424.86039 210.111004 
L 426.37013 202.675791 
L 427.87987 201.436589 
L 429.38961 208.871802 
L 430.899351 202.675791 
L 432.409091 194.001376 
L 433.918831 187.805365 
L 435.428571 205.154195 
L 436.938312 200.197387 
L 438.448052 210.111004 
L 439.957792 203.914993 
L 441.467532 210.111004 
L 442.977273 207.6326 
L 444.487013 202.675791 
L 445.996753 203.914993 
L 447.506494 211.350206 
L 449.016234 208.871802 
L 450.525974 213.828611 
L 453.545455 211.350206 
L 455.055195 207.6326 
L 456.564935 205.154195 
L 458.074675 207.6326 
L 459.584416 200.197387 
L 461.094156 200.197387 
L 462.603896 197.718982 
L 464.113636 206.393398 
L 465.623377 202.675791 
L 467.133117 192.762173 
L 468.642857 207.6326 
L 470.152597 217.546217 
L 471.662338 216.307015 
L 473.172078 211.350206 
L 474.681818 207.6326 
L 476.191558 210.111004 
L 477.701299 203.914993 
L 479.211039 203.914993 
L 480.720779 208.871802 
L 482.230519 195.240578 
L 483.74026 197.718982 
L 485.25 73.798762 
L 486.75974 201.436589 
L 488.269481 212.589409 
L 489.779221 218.78542 
L 491.288961 217.546217 
L 492.798701 217.546217 
L 494.308442 211.350206 
L 495.818182 211.350206 
L 497.327922 205.154195 
L 498.837662 206.393398 
L 500.347403 202.675791 
L 501.857143 207.6326 
L 503.366883 210.111004 
L 504.876623 210.111004 
L 506.386364 202.675791 
L 507.896104 197.718982 
L 509.405844 200.197387 
L 510.915584 195.240578 
L 512.425325 201.436589 
L 513.935065 201.436589 
L 515.444805 205.154195 
L 516.954545 205.154195 
L 518.464286 212.589409 
L 519.974026 208.871802 
L 521.483766 203.914993 
L 522.993506 203.914993 
L 524.503247 200.197387 
L 526.012987 198.958184 
L 527.522727 203.914993 
L 529.032468 201.436589 
L 530.542208 205.154195 
L 532.051948 200.197387 
L 533.561688 206.393398 
L 535.071429 206.393398 
L 536.581169 205.154195 
L 538.090909 207.6326 
L 539.600649 205.154195 
L 541.11039 206.393398 
L 544.12987 211.350206 
L 545.63961 211.350206 
L 547.149351 208.871802 
L 550.168831 211.350206 
L 551.678571 210.111004 
L 553.188312 212.589409 
L 554.666831 -1 
M 554.726972 -1 
L 556.207792 229.938239 
L 557.717532 222.503026 
L 559.227273 222.503026 
L 560.737013 221.263824 
L 562.246753 215.067813 
L 563.756494 216.307015 
L 565.266234 194.001376 
L 566.775974 194.001376 
L 568.285714 195.240578 
L 569.795455 191.522971 
L 571.305195 194.001376 
L 572.814935 189.044567 
L 574.324675 195.240578 
L 575.834416 186.566162 
L 577.344156 192.762173 
L 578.853896 205.154195 
L 580.363636 202.675791 
L 581.873377 208.871802 
L 583.383117 201.436589 
L 584.892857 203.914993 
L 586.402597 200.197387 
L 589.422078 205.154195 
L 590.931818 208.871802 
L 592.441558 207.6326 
L 593.951299 202.675791 
L 595.461039 210.111004 
L 596.970779 207.6326 
L 598.480519 207.6326 
L 599.99026 198.958184 
L 601.5 203.914993 
L 603.00974 189.044567 
L 604.519481 195.240578 
L 606.029221 196.47978 
L 607.538961 192.762173 
L 609.048701 197.718982 
L 610.558442 200.197387 
L 612.068182 192.762173 
L 613.577922 201.436589 
L 615.087662 201.436589 
L 616.597403 200.197387 
L 618.107143 205.154195 
L 619.616883 206.393398 
L 621.126623 203.914993 
L 622.636364 206.393398 
L 622.636364 206.393398 
" clip-path="url(#p3fc829716d)" style="fill: none; stroke: #1f77b4; stroke-width: 1.5; stroke-linecap: square"/>
   </g>
   <g id="line2d_19">
    <path d="M 115.363636 298.09436 
L 116.873377 304.290371 
L 118.383117 301.811967 
L 119.892857 285.702338 
L 121.402597 290.659147 
L 122.912338 306.768776 
L 124.422078 309.24718 
L 127.441558 306.768776 
L 130.461039 309.24718 
L 131.970779 309.24718 
L 133.480519 308.007978 
L 134.99026 309.24718 
L 136.5 303.051169 
L 138.00974 308.007978 
L 139.519481 310.486382 
L 144.048701 306.768776 
L 145.558442 306.768776 
L 147.068182 309.24718 
L 153.107143 309.24718 
L 154.616883 308.007978 
L 156.126623 309.24718 
L 157.636364 308.007978 
L 160.655844 310.486382 
L 162.165584 308.007978 
L 163.675325 306.768776 
L 165.185065 301.811967 
L 166.694805 310.486382 
L 168.204545 308.007978 
L 171.224026 305.529574 
L 172.733766 306.768776 
L 174.243506 309.24718 
L 177.262987 304.290371 
L 178.772727 308.007978 
L 180.282468 306.768776 
L 181.792208 306.768776 
L 183.301948 305.529574 
L 184.811688 309.24718 
L 186.321429 306.768776 
L 187.831169 306.768776 
L 189.340909 300.572765 
L 190.850649 306.768776 
L 192.36039 279.506327 
L 193.87013 281.984732 
L 195.37987 304.290371 
L 196.88961 309.24718 
L 198.399351 253.483081 
L 199.909091 294.376754 
L 201.418831 289.419945 
L 202.928571 260.918294 
L 204.438312 299.333563 
L 205.948052 258.43989 
L 207.457792 306.768776 
L 208.967532 306.768776 
L 210.477273 299.333563 
L 211.987013 309.24718 
L 213.496753 291.898349 
L 215.006494 294.376754 
L 216.516234 270.831912 
L 218.025974 310.486382 
L 219.535714 285.702338 
L 221.045455 310.486382 
L 222.555195 296.855158 
L 224.064935 309.24718 
L 225.574675 291.898349 
L 227.084416 73.798762 
L 228.594156 308.007978 
L 230.103896 306.768776 
L 231.613636 309.24718 
L 233.123377 303.051169 
L 234.633117 298.09436 
L 236.142857 309.24718 
L 237.652597 305.529574 
L 239.162338 309.24718 
L 240.672078 296.855158 
L 242.181818 309.24718 
L 243.691558 290.659147 
L 245.201299 288.180743 
L 246.711039 308.007978 
L 248.220779 300.572765 
L 249.730519 309.24718 
L 251.24026 305.529574 
L 252.75 306.768776 
L 254.25974 309.24718 
L 255.769481 304.290371 
L 257.279221 290.659147 
L 258.788961 279.506327 
L 260.298701 308.007978 
L 261.808442 305.529574 
L 263.318182 306.768776 
L 264.827922 309.24718 
L 266.337662 306.768776 
L 267.847403 308.007978 
L 269.357143 310.486382 
L 272.376623 305.529574 
L 273.886364 309.24718 
L 276.905844 306.768776 
L 278.415584 310.486382 
L 279.925325 308.007978 
L 281.435065 308.007978 
L 284.454545 305.529574 
L 285.964286 310.486382 
L 287.474026 310.486382 
L 288.983766 308.007978 
L 292.003247 310.486382 
L 296.532468 306.768776 
L 298.042208 309.24718 
L 299.551948 305.529574 
L 301.061688 310.486382 
L 302.571429 309.24718 
L 305.590909 309.24718 
L 307.100649 308.007978 
L 308.61039 308.007978 
L 310.12013 306.768776 
L 311.62987 308.007978 
L 313.13961 308.007978 
L 314.649351 306.768776 
L 316.159091 306.768776 
L 317.668831 308.007978 
L 319.178571 305.529574 
L 320.688312 308.007978 
L 322.198052 306.768776 
L 323.707792 308.007978 
L 326.727273 308.007978 
L 329.746753 305.529574 
L 331.256494 305.529574 
L 332.766234 309.24718 
L 334.275974 308.007978 
L 337.295455 310.486382 
L 338.805195 306.768776 
L 340.314935 305.529574 
L 341.824675 308.007978 
L 343.334416 308.007978 
L 344.844156 125.845254 
L 346.353896 309.24718 
L 347.863636 306.768776 
L 349.373377 308.007978 
L 350.883117 310.486382 
L 352.392857 305.529574 
L 355.412338 308.007978 
L 356.922078 310.486382 
L 358.431818 311.725585 
L 361.451299 306.768776 
L 362.961039 301.811967 
L 364.470779 309.24718 
L 365.980519 305.529574 
L 367.49026 304.290371 
L 369 306.768776 
L 370.50974 308.007978 
L 372.019481 308.007978 
L 373.529221 295.615956 
L 375.038961 309.24718 
L 376.548701 305.529574 
L 378.058442 310.486382 
L 379.568182 308.007978 
L 381.077922 309.24718 
L 382.587662 308.007978 
L 384.097403 308.007978 
L 385.607143 309.24718 
L 387.116883 311.725585 
L 388.626623 311.725585 
L 390.136364 308.007978 
L 391.646104 306.768776 
L 393.155844 309.24718 
L 394.665584 309.24718 
L 396.175325 310.486382 
L 397.685065 306.768776 
L 399.194805 309.24718 
L 400.704545 310.486382 
L 402.214286 306.768776 
L 403.724026 310.486382 
L 406.743506 308.007978 
L 408.253247 310.486382 
L 409.762987 306.768776 
L 411.272727 308.007978 
L 412.782468 306.768776 
L 414.292208 309.24718 
L 415.801948 207.6326 
L 417.311688 306.768776 
L 420.331169 311.725585 
L 421.840909 305.529574 
L 423.350649 308.007978 
L 424.86039 309.24718 
L 426.37013 309.24718 
L 427.87987 308.007978 
L 429.38961 309.24718 
L 430.899351 306.768776 
L 432.409091 306.768776 
L 433.918831 308.007978 
L 436.938312 305.529574 
L 438.448052 309.24718 
L 439.957792 305.529574 
L 441.467532 310.486382 
L 442.977273 308.007978 
L 444.487013 309.24718 
L 445.996753 308.007978 
L 450.525974 308.007978 
L 452.035714 306.768776 
L 453.545455 308.007978 
L 455.055195 308.007978 
L 456.564935 305.529574 
L 458.074675 308.007978 
L 459.584416 306.768776 
L 461.094156 308.007978 
L 462.603896 304.290371 
L 464.113636 309.24718 
L 465.623377 308.007978 
L 467.133117 304.290371 
L 468.642857 308.007978 
L 470.152597 306.768776 
L 471.662338 309.24718 
L 473.172078 308.007978 
L 476.191558 308.007978 
L 477.701299 309.24718 
L 479.211039 306.768776 
L 480.720779 309.24718 
L 482.230519 308.007978 
L 483.74026 308.007978 
L 485.25 280.74553 
L 486.75974 304.290371 
L 488.269481 306.768776 
L 489.779221 310.486382 
L 491.288961 308.007978 
L 492.798701 309.24718 
L 494.308442 308.007978 
L 495.818182 309.24718 
L 497.327922 305.529574 
L 498.837662 308.007978 
L 500.347403 308.007978 
L 501.857143 311.725585 
L 503.366883 310.486382 
L 504.876623 308.007978 
L 506.386364 306.768776 
L 507.896104 306.768776 
L 509.405844 308.007978 
L 510.915584 308.007978 
L 512.425325 309.24718 
L 513.935065 308.007978 
L 515.444805 308.007978 
L 518.464286 310.486382 
L 519.974026 309.24718 
L 521.483766 304.290371 
L 522.993506 308.007978 
L 524.503247 309.24718 
L 526.012987 304.290371 
L 527.522727 309.24718 
L 529.032468 308.007978 
L 530.542208 310.486382 
L 532.051948 310.486382 
L 535.071429 308.007978 
L 536.581169 309.24718 
L 538.090909 311.725585 
L 539.600649 311.725585 
L 541.11039 309.24718 
L 542.62013 310.486382 
L 544.12987 310.486382 
L 547.149351 308.007978 
L 548.659091 308.007978 
L 550.168831 310.486382 
L 553.188312 308.007978 
L 554.698052 141.954883 
L 556.207792 309.24718 
L 557.717532 306.768776 
L 559.227273 308.007978 
L 560.737013 305.529574 
L 563.756494 310.486382 
L 565.266234 305.529574 
L 566.775974 309.24718 
L 568.285714 311.725585 
L 569.795455 304.290371 
L 571.305195 310.486382 
L 572.814935 311.725585 
L 574.324675 311.725585 
L 575.834416 308.007978 
L 577.344156 310.486382 
L 578.853896 314.203989 
L 580.363636 311.725585 
L 581.873377 312.964787 
L 583.383117 309.24718 
L 584.892857 311.725585 
L 586.402597 310.486382 
L 587.912338 308.007978 
L 589.422078 308.007978 
L 590.931818 309.24718 
L 592.441558 309.24718 
L 593.951299 311.725585 
L 595.461039 311.725585 
L 596.970779 308.007978 
L 599.99026 308.007978 
L 601.5 311.725585 
L 603.00974 309.24718 
L 604.519481 311.725585 
L 607.538961 311.725585 
L 609.048701 310.486382 
L 610.558442 312.964787 
L 612.068182 311.725585 
L 615.087662 311.725585 
L 616.597403 314.203989 
L 618.107143 311.725585 
L 619.616883 314.203989 
L 621.126623 311.725585 
L 622.636364 314.203989 
L 622.636364 314.203989 
" clip-path="url(#p3fc829716d)" style="fill: none; stroke: #ff7f0e; stroke-width: 1.5; stroke-linecap: square"/>
   </g>
   <g id="line2d_20">
    <path d="M 115.363636 290.659147 
L 116.873377 303.051169 
L 118.383117 298.09436 
L 119.892857 299.333563 
L 121.402597 298.09436 
L 122.912338 301.811967 
L 124.422078 301.811967 
L 125.931818 300.572765 
L 128.951299 300.572765 
L 130.461039 301.811967 
L 133.480519 299.333563 
L 134.99026 299.333563 
L 136.5 301.811967 
L 138.00974 303.051169 
L 139.519481 301.811967 
L 141.029221 301.811967 
L 142.538961 300.572765 
L 144.048701 303.051169 
L 145.558442 300.572765 
L 147.068182 303.051169 
L 148.577922 300.572765 
L 150.087662 301.811967 
L 151.597403 301.811967 
L 153.107143 303.051169 
L 154.616883 300.572765 
L 156.126623 301.811967 
L 157.636364 304.290371 
L 160.655844 301.811967 
L 162.165584 303.051169 
L 163.675325 300.572765 
L 165.185065 301.811967 
L 169.714286 301.811967 
L 171.224026 300.572765 
L 172.733766 301.811967 
L 174.243506 300.572765 
L 175.753247 301.811967 
L 177.262987 298.09436 
L 180.282468 303.051169 
L 181.792208 298.09436 
L 183.301948 304.290371 
L 184.811688 305.529574 
L 186.321429 246.047868 
L 187.831169 301.811967 
L 189.340909 303.051169 
L 190.850649 273.310316 
L 192.36039 288.180743 
L 193.87013 296.855158 
L 195.37987 296.855158 
L 196.88961 303.051169 
L 198.399351 296.855158 
L 199.909091 298.09436 
L 201.418831 293.137552 
L 202.928571 303.051169 
L 204.438312 301.811967 
L 207.457792 301.811967 
L 208.967532 299.333563 
L 210.477273 301.811967 
L 211.987013 303.051169 
L 213.496753 300.572765 
L 216.516234 305.529574 
L 219.535714 303.051169 
L 221.045455 304.290371 
L 222.555195 301.811967 
L 225.574675 301.811967 
L 227.084416 160.542916 
L 228.594156 294.376754 
L 230.103896 286.941541 
L 231.613636 301.811967 
L 233.123377 301.811967 
L 234.633117 300.572765 
L 236.142857 303.051169 
L 237.652597 304.290371 
L 239.162338 303.051169 
L 240.672078 304.290371 
L 243.691558 304.290371 
L 245.201299 301.811967 
L 246.711039 303.051169 
L 248.220779 299.333563 
L 249.730519 303.051169 
L 252.75 303.051169 
L 254.25974 300.572765 
L 255.769481 301.811967 
L 257.279221 304.290371 
L 258.788961 304.290371 
L 260.298701 303.051169 
L 263.318182 303.051169 
L 266.337662 300.572765 
L 267.847403 300.572765 
L 270.866883 303.051169 
L 272.376623 303.051169 
L 273.886364 301.811967 
L 275.396104 301.811967 
L 276.905844 299.333563 
L 278.415584 301.811967 
L 279.925325 303.051169 
L 281.435065 301.811967 
L 282.944805 303.051169 
L 284.454545 301.811967 
L 292.003247 301.811967 
L 293.512987 299.333563 
L 295.022727 301.811967 
L 302.571429 301.811967 
L 305.590909 296.855158 
L 307.100649 303.051169 
L 308.61039 301.811967 
L 316.159091 301.811967 
L 317.668831 303.051169 
L 319.178571 300.572765 
L 320.688312 301.811967 
L 322.198052 298.09436 
L 323.707792 300.572765 
L 325.217532 301.811967 
L 326.727273 304.290371 
L 329.746753 301.811967 
L 331.256494 301.811967 
L 332.766234 303.051169 
L 335.785714 300.572765 
L 337.295455 301.811967 
L 338.805195 301.811967 
L 340.314935 298.09436 
L 341.824675 303.051169 
L 343.334416 294.376754 
L 344.518173 -1 
M 345.165905 -1 
L 346.353896 299.333563 
L 347.863636 299.333563 
L 349.373377 303.051169 
L 350.883117 304.290371 
L 352.392857 296.855158 
L 353.902597 303.051169 
L 355.412338 300.572765 
L 356.922078 301.811967 
L 358.431818 300.572765 
L 359.941558 293.137552 
L 361.451299 300.572765 
L 362.961039 303.051169 
L 364.470779 303.051169 
L 365.980519 300.572765 
L 367.49026 301.811967 
L 369 300.572765 
L 370.50974 303.051169 
L 372.019481 299.333563 
L 373.529221 301.811967 
L 375.038961 299.333563 
L 376.548701 301.811967 
L 381.077922 301.811967 
L 382.587662 300.572765 
L 384.097403 300.572765 
L 385.607143 299.333563 
L 387.116883 301.811967 
L 388.626623 300.572765 
L 391.646104 300.572765 
L 393.155844 301.811967 
L 394.665584 299.333563 
L 397.685065 301.811967 
L 399.194805 301.811967 
L 400.704545 300.572765 
L 402.214286 301.811967 
L 403.724026 299.333563 
L 405.233766 301.811967 
L 406.743506 300.572765 
L 409.762987 300.572765 
L 411.272727 301.811967 
L 415.801948 301.811967 
L 417.311688 303.051169 
L 418.821429 303.051169 
L 420.331169 304.290371 
L 421.840909 303.051169 
L 423.350649 304.290371 
L 424.86039 304.290371 
L 427.87987 301.811967 
L 429.38961 303.051169 
L 430.899351 300.572765 
L 432.409091 301.811967 
L 433.918831 290.659147 
L 435.428571 301.811967 
L 436.938312 298.09436 
L 438.448052 300.572765 
L 439.957792 301.811967 
L 441.467532 301.811967 
L 442.977273 300.572765 
L 444.487013 303.051169 
L 445.996753 300.572765 
L 447.506494 301.811967 
L 449.016234 300.572765 
L 450.525974 301.811967 
L 452.035714 300.572765 
L 453.545455 301.811967 
L 455.055195 300.572765 
L 458.074675 303.051169 
L 459.584416 300.572765 
L 461.094156 301.811967 
L 465.623377 301.811967 
L 467.133117 299.333563 
L 468.642857 300.572765 
L 470.152597 303.051169 
L 471.662338 304.290371 
L 473.172078 303.051169 
L 474.681818 300.572765 
L 476.191558 301.811967 
L 480.720779 301.811967 
L 482.230519 298.09436 
L 483.74026 300.572765 
L 485.25 293.137552 
L 486.75974 301.811967 
L 488.269481 300.572765 
L 489.779221 304.290371 
L 491.288961 301.811967 
L 492.798701 303.051169 
L 494.308442 301.811967 
L 501.857143 301.811967 
L 503.366883 303.051169 
L 504.876623 301.811967 
L 506.386364 303.051169 
L 507.896104 301.811967 
L 509.405844 301.811967 
L 510.915584 300.572765 
L 512.425325 301.811967 
L 515.444805 301.811967 
L 516.954545 300.572765 
L 518.464286 301.811967 
L 519.974026 301.811967 
L 521.483766 300.572765 
L 522.993506 300.572765 
L 524.503247 301.811967 
L 526.012987 300.572765 
L 532.051948 300.572765 
L 533.561688 301.811967 
L 536.581169 301.811967 
L 538.090909 300.572765 
L 539.600649 301.811967 
L 541.11039 301.811967 
L 542.62013 303.051169 
L 544.12987 303.051169 
L 545.63961 300.572765 
L 547.149351 301.811967 
L 548.659091 299.333563 
L 550.168831 300.572765 
L 553.188312 300.572765 
L 554.698052 298.09436 
L 556.207792 300.572765 
L 557.717532 299.333563 
L 559.227273 303.051169 
L 560.737013 301.811967 
L 562.246753 303.051169 
L 565.266234 300.572765 
L 566.775974 301.811967 
L 569.795455 301.811967 
L 571.305195 303.051169 
L 572.814935 299.333563 
L 574.324675 301.811967 
L 575.834416 299.333563 
L 577.344156 300.572765 
L 580.363636 300.572765 
L 581.873377 303.051169 
L 583.383117 299.333563 
L 584.892857 301.811967 
L 586.402597 300.572765 
L 587.912338 301.811967 
L 589.422078 300.572765 
L 592.441558 300.572765 
L 593.951299 299.333563 
L 598.480519 303.051169 
L 599.99026 301.811967 
L 601.5 303.051169 
L 604.519481 300.572765 
L 606.029221 301.811967 
L 607.538961 300.572765 
L 610.558442 303.051169 
L 612.068182 301.811967 
L 613.577922 303.051169 
L 619.616883 303.051169 
L 621.126623 301.811967 
L 622.636364 301.811967 
L 622.636364 301.811967 
" clip-path="url(#p3fc829716d)" style="fill: none; stroke: #2ca02c; stroke-width: 1.5; stroke-linecap: square"/>
   </g>
   <g id="line2d_21">
    <path d="M 115.363636 171.695736 
L 116.873377 260.918294 
L 118.383117 263.396699 
L 119.892857 238.612655 
L 121.402597 259.679092 
L 122.912338 262.157497 
L 124.422078 262.157497 
L 125.931818 267.114305 
L 127.441558 263.396699 
L 128.951299 263.396699 
L 130.461039 260.918294 
L 131.970779 260.918294 
L 133.480519 263.396699 
L 134.99026 262.157497 
L 136.5 263.396699 
L 138.00974 267.114305 
L 139.519481 259.679092 
L 141.029221 262.157497 
L 142.538961 265.875103 
L 144.048701 262.157497 
L 145.558442 267.114305 
L 147.068182 262.157497 
L 148.577922 264.635901 
L 150.087662 262.157497 
L 151.597403 264.635901 
L 153.107143 254.722283 
L 154.616883 257.200688 
L 156.126623 262.157497 
L 157.636364 262.157497 
L 159.146104 264.635901 
L 160.655844 262.157497 
L 162.165584 262.157497 
L 163.675325 265.875103 
L 165.185065 268.353508 
L 166.694805 264.635901 
L 168.204545 264.635901 
L 169.714286 263.396699 
L 171.224026 258.43989 
L 172.733766 260.918294 
L 174.243506 260.918294 
L 175.753247 259.679092 
L 177.262987 248.526272 
L 178.772727 258.43989 
L 180.282468 257.200688 
L 181.792208 257.200688 
L 183.301948 262.157497 
L 184.811688 222.503026 
L 186.321429 262.157497 
L 187.831169 260.918294 
L 189.340909 139.476479 
L 190.850649 229.938239 
L 192.36039 233.655846 
L 193.87013 246.047868 
L 195.37987 242.330261 
L 196.88961 253.483081 
L 198.399351 211.350206 
L 199.909091 248.526272 
L 201.418831 237.373453 
L 202.928571 260.918294 
L 204.438312 267.114305 
L 205.948052 262.157497 
L 207.457792 269.59271 
L 208.967532 265.875103 
L 210.477273 267.114305 
L 211.987013 263.396699 
L 213.496753 233.655846 
L 215.006494 269.59271 
L 216.516234 267.114305 
L 218.025974 268.353508 
L 219.535714 265.875103 
L 221.045455 270.831912 
L 222.555195 251.004677 
L 224.064935 267.114305 
L 225.574675 257.200688 
L 227.084416 232.416644 
L 228.594156 264.635901 
L 230.103896 262.157497 
L 231.613636 272.071114 
L 233.123377 267.114305 
L 234.633117 260.918294 
L 236.142857 268.353508 
L 237.652597 269.59271 
L 239.162338 255.961486 
L 240.672078 267.114305 
L 242.181818 249.765475 
L 243.691558 263.396699 
L 245.201299 268.353508 
L 246.711039 264.635901 
L 248.220779 264.635901 
L 249.730519 233.655846 
L 251.24026 260.918294 
L 252.75 241.091059 
L 254.25974 260.918294 
L 255.769481 265.875103 
L 257.279221 259.679092 
L 258.788961 259.679092 
L 260.298701 265.875103 
L 261.808442 268.353508 
L 263.318182 260.918294 
L 264.827922 264.635901 
L 266.337662 263.396699 
L 267.847403 264.635901 
L 269.357143 263.396699 
L 270.866883 264.635901 
L 272.376623 267.114305 
L 273.886364 263.396699 
L 275.396104 263.396699 
L 276.905844 262.157497 
L 278.415584 263.396699 
L 279.925325 262.157497 
L 281.435065 265.875103 
L 282.944805 259.679092 
L 284.454545 265.875103 
L 287.474026 260.918294 
L 288.983766 263.396699 
L 290.493506 264.635901 
L 292.003247 267.114305 
L 293.512987 265.875103 
L 295.022727 262.157497 
L 298.042208 267.114305 
L 299.551948 264.635901 
L 301.061688 264.635901 
L 302.571429 259.679092 
L 304.081169 265.875103 
L 305.590909 262.157497 
L 307.100649 265.875103 
L 308.61039 264.635901 
L 310.12013 264.635901 
L 311.62987 265.875103 
L 313.13961 260.918294 
L 314.649351 265.875103 
L 316.159091 264.635901 
L 317.668831 265.875103 
L 319.178571 264.635901 
L 320.688312 265.875103 
L 322.198052 259.679092 
L 323.707792 263.396699 
L 325.217532 264.635901 
L 326.727273 270.831912 
L 328.237013 267.114305 
L 329.746753 268.353508 
L 331.256494 265.875103 
L 334.275974 265.875103 
L 335.785714 257.200688 
L 337.295455 267.114305 
L 338.805195 265.875103 
L 340.314935 252.243879 
L 341.824675 251.004677 
L 343.334416 254.722283 
L 344.844156 181.609354 
L 346.353896 247.28707 
L 347.863636 259.679092 
L 349.373377 264.635901 
L 350.883117 264.635901 
L 352.392857 260.918294 
L 355.412338 265.875103 
L 358.431818 260.918294 
L 359.941558 265.875103 
L 361.451299 263.396699 
L 362.961039 262.157497 
L 364.470779 262.157497 
L 365.980519 265.875103 
L 367.49026 264.635901 
L 369 267.114305 
L 370.50974 265.875103 
L 372.019481 254.722283 
L 373.529221 264.635901 
L 375.038961 257.200688 
L 376.548701 259.679092 
L 378.058442 260.918294 
L 379.568182 263.396699 
L 382.587662 260.918294 
L 384.097403 263.396699 
L 385.607143 263.396699 
L 387.116883 264.635901 
L 388.626623 264.635901 
L 390.136364 262.157497 
L 391.646104 260.918294 
L 393.155844 264.635901 
L 396.175325 262.157497 
L 397.685065 263.396699 
L 399.194805 260.918294 
L 402.214286 265.875103 
L 403.724026 260.918294 
L 405.233766 264.635901 
L 406.743506 259.679092 
L 409.762987 259.679092 
L 411.272727 264.635901 
L 412.782468 263.396699 
L 414.292208 263.396699 
L 415.801948 196.47978 
L 417.311688 268.353508 
L 418.821429 270.831912 
L 420.331169 270.831912 
L 421.840909 269.59271 
L 424.86039 269.59271 
L 426.37013 262.157497 
L 427.87987 265.875103 
L 429.38961 267.114305 
L 430.899351 265.875103 
L 432.409091 255.961486 
L 433.918831 259.679092 
L 436.938312 262.157497 
L 438.448052 265.875103 
L 439.957792 264.635901 
L 441.467532 268.353508 
L 442.977273 268.353508 
L 444.487013 262.157497 
L 445.996753 263.396699 
L 447.506494 267.114305 
L 449.016234 262.157497 
L 452.035714 264.635901 
L 453.545455 264.635901 
L 455.055195 260.918294 
L 456.564935 262.157497 
L 458.074675 262.157497 
L 459.584416 263.396699 
L 461.094156 260.918294 
L 462.603896 260.918294 
L 464.113636 263.396699 
L 465.623377 263.396699 
L 467.133117 259.679092 
L 468.642857 267.114305 
L 470.152597 272.071114 
L 471.662338 268.353508 
L 473.172078 267.114305 
L 474.681818 264.635901 
L 476.191558 265.875103 
L 477.701299 259.679092 
L 479.211039 262.157497 
L 480.720779 263.396699 
L 482.230519 255.961486 
L 483.74026 255.961486 
L 485.25 163.02132 
L 486.75974 257.200688 
L 488.269481 264.635901 
L 489.779221 265.875103 
L 491.288961 269.59271 
L 494.308442 264.635901 
L 497.327922 264.635901 
L 498.837662 265.875103 
L 500.347403 262.157497 
L 501.857143 262.157497 
L 503.366883 263.396699 
L 504.876623 267.114305 
L 506.386364 262.157497 
L 507.896104 262.157497 
L 509.405844 263.396699 
L 510.915584 257.200688 
L 512.425325 262.157497 
L 513.935065 260.918294 
L 516.954545 260.918294 
L 518.464286 264.635901 
L 519.974026 263.396699 
L 521.483766 264.635901 
L 522.993506 262.157497 
L 524.503247 257.200688 
L 526.012987 262.157497 
L 529.032468 264.635901 
L 530.542208 264.635901 
L 532.051948 259.679092 
L 533.561688 263.396699 
L 535.071429 263.396699 
L 536.581169 260.918294 
L 539.600649 263.396699 
L 541.11039 263.396699 
L 542.62013 264.635901 
L 544.12987 264.635901 
L 545.63961 263.396699 
L 548.659091 263.396699 
L 551.678571 260.918294 
L 553.188312 262.157497 
L 554.698052 221.263824 
L 556.207792 272.071114 
L 557.717532 265.875103 
L 559.227273 265.875103 
L 560.737013 267.114305 
L 562.246753 262.157497 
L 563.756494 264.635901 
L 565.266234 262.157497 
L 566.775974 263.396699 
L 568.285714 263.396699 
L 569.795455 264.635901 
L 571.305195 258.43989 
L 572.814935 260.918294 
L 574.324675 265.875103 
L 575.834416 259.679092 
L 577.344156 262.157497 
L 578.853896 263.396699 
L 580.363636 258.43989 
L 583.383117 260.918294 
L 584.892857 257.200688 
L 586.402597 259.679092 
L 587.912338 257.200688 
L 589.422078 258.43989 
L 590.931818 260.918294 
L 592.441558 259.679092 
L 593.951299 257.200688 
L 595.461039 263.396699 
L 596.970779 262.157497 
L 598.480519 262.157497 
L 599.99026 259.679092 
L 601.5 265.875103 
L 603.00974 255.961486 
L 604.519481 263.396699 
L 606.029221 263.396699 
L 607.538961 262.157497 
L 609.048701 263.396699 
L 610.558442 262.157497 
L 612.068182 262.157497 
L 615.087662 267.114305 
L 616.597403 263.396699 
L 618.107143 265.875103 
L 619.616883 267.114305 
L 621.126623 263.396699 
L 622.636364 263.396699 
L 622.636364 263.396699 
" clip-path="url(#p3fc829716d)" style="fill: none; stroke: #d62728; stroke-width: 1.5; stroke-linecap: square"/>
   </g>
   <g id="line2d_22">
    <path d="M 115.363636 304.290371 
L 122.912338 304.290371 
L 124.422078 305.529574 
L 127.441558 303.051169 
L 128.951299 300.572765 
L 130.461039 296.855158 
L 131.970779 298.09436 
L 133.480519 295.615956 
L 134.99026 296.855158 
L 136.5 294.376754 
L 138.00974 296.855158 
L 139.519481 295.615956 
L 141.029221 293.137552 
L 142.538961 294.376754 
L 144.048701 290.659147 
L 145.558442 291.898349 
L 147.068182 290.659147 
L 148.577922 291.898349 
L 150.087662 289.419945 
L 151.597403 288.180743 
L 153.107143 278.267125 
L 154.616883 290.659147 
L 156.126623 295.615956 
L 157.636364 293.137552 
L 159.146104 299.333563 
L 160.655844 303.051169 
L 163.675325 305.529574 
L 165.185065 304.290371 
L 166.694805 306.768776 
L 168.204545 304.290371 
L 169.714286 305.529574 
L 171.224026 304.290371 
L 172.733766 304.290371 
L 177.262987 300.572765 
L 178.772727 304.290371 
L 180.282468 303.051169 
L 181.792208 303.051169 
L 183.301948 301.811967 
L 184.811688 301.811967 
L 186.321429 299.333563 
L 187.831169 298.09436 
L 189.340909 254.722283 
L 190.850649 296.855158 
L 192.36039 300.572765 
L 193.87013 295.615956 
L 196.88961 300.572765 
L 198.399351 284.463136 
L 199.909091 298.09436 
L 201.418831 295.615956 
L 202.928571 300.572765 
L 205.948052 298.09436 
L 207.457792 295.615956 
L 208.967532 283.223934 
L 210.477273 293.137552 
L 211.987013 295.615956 
L 213.496753 301.811967 
L 216.516234 306.768776 
L 218.025974 303.051169 
L 219.535714 301.811967 
L 221.045455 301.811967 
L 224.064935 304.290371 
L 225.574675 285.702338 
L 227.084416 294.376754 
L 228.594156 306.768776 
L 231.613636 306.768776 
L 233.123377 305.529574 
L 237.652597 305.529574 
L 239.162338 146.911692 
L 240.672078 305.529574 
L 242.181818 197.718982 
L 243.691558 303.051169 
L 245.201299 304.290371 
L 248.220779 304.290371 
L 249.730519 300.572765 
L 251.24026 303.051169 
L 252.75 300.572765 
L 254.25974 304.290371 
L 255.769481 301.811967 
L 258.788961 304.290371 
L 260.298701 304.290371 
L 261.808442 301.811967 
L 264.827922 301.811967 
L 266.337662 300.572765 
L 267.847403 300.572765 
L 269.357143 301.811967 
L 272.376623 301.811967 
L 273.886364 303.051169 
L 275.396104 301.811967 
L 276.905844 303.051169 
L 278.415584 299.333563 
L 279.925325 299.333563 
L 281.435065 296.855158 
L 282.944805 298.09436 
L 284.454545 300.572765 
L 285.964286 300.572765 
L 287.474026 298.09436 
L 288.983766 299.333563 
L 290.493506 299.333563 
L 292.003247 301.811967 
L 293.512987 299.333563 
L 295.022727 303.051169 
L 296.532468 301.811967 
L 298.042208 303.051169 
L 299.551948 301.811967 
L 301.061688 301.811967 
L 302.571429 299.333563 
L 304.081169 299.333563 
L 307.100649 301.811967 
L 308.61039 301.811967 
L 310.12013 303.051169 
L 311.62987 301.811967 
L 314.649351 301.811967 
L 316.159091 300.572765 
L 317.668831 300.572765 
L 320.688312 298.09436 
L 322.198052 299.333563 
L 323.707792 299.333563 
L 325.217532 301.811967 
L 326.727273 303.051169 
L 328.237013 301.811967 
L 329.746753 304.290371 
L 331.256494 304.290371 
L 332.766234 308.007978 
L 334.275974 306.768776 
L 335.785714 303.051169 
L 337.295455 306.768776 
L 338.805195 308.007978 
L 340.314935 306.768776 
L 341.824675 308.007978 
L 343.334416 308.007978 
L 344.844156 293.137552 
L 346.353896 308.007978 
L 347.863636 309.24718 
L 349.373377 309.24718 
L 350.883117 306.768776 
L 353.902597 306.768776 
L 355.412338 303.051169 
L 356.922078 305.529574 
L 358.431818 305.529574 
L 359.941558 306.768776 
L 361.451299 304.290371 
L 362.961039 306.768776 
L 364.470779 303.051169 
L 365.980519 303.051169 
L 367.49026 305.529574 
L 369 306.768776 
L 372.019481 304.290371 
L 373.529221 298.09436 
L 375.038961 298.09436 
L 376.548701 295.615956 
L 378.058442 294.376754 
L 379.568182 291.898349 
L 381.077922 290.659147 
L 382.587662 294.376754 
L 384.097403 294.376754 
L 385.607143 298.09436 
L 387.116883 296.855158 
L 391.646104 296.855158 
L 393.155844 299.333563 
L 394.665584 300.572765 
L 397.685065 300.572765 
L 399.194805 304.290371 
L 400.704545 305.529574 
L 402.214286 303.051169 
L 405.233766 305.529574 
L 406.743506 304.290371 
L 408.253247 299.333563 
L 409.762987 283.223934 
L 411.272727 281.984732 
L 412.782468 296.855158 
L 414.292208 299.333563 
L 415.801948 304.290371 
L 417.311688 283.223934 
L 418.821429 296.855158 
L 420.331169 295.615956 
L 421.840909 299.333563 
L 423.350649 295.615956 
L 424.86039 295.615956 
L 426.37013 298.09436 
L 427.87987 296.855158 
L 429.38961 300.572765 
L 432.409091 300.572765 
L 433.918831 301.811967 
L 435.428571 305.529574 
L 436.938312 304.290371 
L 438.448052 304.290371 
L 439.957792 303.051169 
L 441.467532 303.051169 
L 444.487013 300.572765 
L 445.996753 303.051169 
L 447.506494 304.290371 
L 450.525974 309.24718 
L 452.035714 308.007978 
L 453.545455 305.529574 
L 455.055195 306.768776 
L 456.564935 304.290371 
L 458.074675 304.290371 
L 459.584416 301.811967 
L 461.094156 300.572765 
L 464.113636 300.572765 
L 465.623377 299.333563 
L 468.642857 301.811967 
L 470.152597 304.290371 
L 473.172078 301.811967 
L 474.681818 303.051169 
L 477.701299 303.051169 
L 479.211039 301.811967 
L 480.720779 303.051169 
L 482.230519 303.051169 
L 483.74026 301.811967 
L 485.25 305.529574 
L 488.269481 308.007978 
L 489.779221 308.007978 
L 491.288961 309.24718 
L 492.798701 308.007978 
L 494.308442 308.007978 
L 495.818182 306.768776 
L 497.327922 303.051169 
L 500.347403 300.572765 
L 501.857143 300.572765 
L 504.876623 303.051169 
L 506.386364 298.09436 
L 507.896104 296.855158 
L 509.405844 296.855158 
L 510.915584 299.333563 
L 512.425325 299.333563 
L 513.935065 301.811967 
L 515.444805 303.051169 
L 516.954545 303.051169 
L 519.974026 305.529574 
L 521.483766 303.051169 
L 522.993506 303.051169 
L 524.503247 300.572765 
L 527.522727 300.572765 
L 529.032468 298.09436 
L 530.542208 298.09436 
L 532.051948 299.333563 
L 533.561688 301.811967 
L 535.071429 303.051169 
L 538.090909 303.051169 
L 539.600649 300.572765 
L 541.11039 301.811967 
L 542.62013 301.811967 
L 545.63961 306.768776 
L 548.659091 309.24718 
L 551.678571 309.24718 
L 553.188312 311.725585 
L 554.698052 311.725585 
L 556.207792 315.443191 
L 557.717532 315.443191 
L 559.227273 312.964787 
L 560.737013 311.725585 
L 562.246753 306.768776 
L 563.756494 310.486382 
L 565.266234 294.376754 
L 566.775974 289.419945 
L 568.285714 288.180743 
L 569.795455 289.419945 
L 571.305195 291.898349 
L 572.814935 286.941541 
L 574.324675 288.180743 
L 575.834416 290.659147 
L 577.344156 290.659147 
L 578.853896 296.855158 
L 581.873377 301.811967 
L 584.892857 301.811967 
L 586.402597 299.333563 
L 587.912338 305.529574 
L 589.422078 306.768776 
L 590.931818 306.768776 
L 593.951299 304.290371 
L 595.461039 304.290371 
L 596.970779 305.529574 
L 598.480519 304.290371 
L 599.99026 299.333563 
L 601.5 296.855158 
L 603.00974 293.137552 
L 604.519481 293.137552 
L 606.029221 290.659147 
L 607.538961 290.659147 
L 609.048701 291.898349 
L 610.558442 291.898349 
L 612.068182 293.137552 
L 613.577922 291.898349 
L 615.087662 291.898349 
L 616.597403 290.659147 
L 618.107143 295.615956 
L 619.616883 291.898349 
L 621.126623 295.615956 
L 622.636364 296.855158 
L 622.636364 296.855158 
" clip-path="url(#p3fc829716d)" style="fill: none; stroke: #9467bd; stroke-width: 1.5; stroke-linecap: square"/>
   </g>
   <g id="line2d_23">
    <path d="M 115.363636 315.443191 
L 118.383117 317.921596 
L 119.892857 315.443191 
L 121.402597 316.682393 
L 125.931818 316.682393 
L 127.441558 317.921596 
L 128.951299 315.443191 
L 130.461039 298.09436 
L 131.970779 316.682393 
L 133.480519 316.682393 
L 134.99026 317.921596 
L 136.5 317.921596 
L 139.519481 315.443191 
L 141.029221 315.443191 
L 142.538961 316.682393 
L 147.068182 316.682393 
L 148.577922 317.921596 
L 157.636364 317.921596 
L 159.146104 319.160798 
L 160.655844 319.160798 
L 162.165584 317.921596 
L 183.301948 317.921596 
L 184.811688 316.682393 
L 187.831169 316.682393 
L 189.340909 306.768776 
L 190.850649 316.682393 
L 193.87013 314.203989 
L 195.37987 315.443191 
L 196.88961 308.007978 
L 198.399351 315.443191 
L 199.909091 281.984732 
L 201.418831 315.443191 
L 202.928571 316.682393 
L 207.457792 316.682393 
L 208.967532 315.443191 
L 210.477273 317.921596 
L 211.987013 315.443191 
L 213.496753 315.443191 
L 216.516234 317.921596 
L 218.025974 317.921596 
L 219.535714 316.682393 
L 221.045455 316.682393 
L 222.555195 315.443191 
L 224.064935 316.682393 
L 225.574675 312.964787 
L 227.084416 315.443191 
L 228.594156 316.682393 
L 237.652597 316.682393 
L 239.162338 315.443191 
L 240.672078 316.682393 
L 248.220779 316.682393 
L 249.730519 314.203989 
L 251.24026 316.682393 
L 254.25974 316.682393 
L 255.769481 315.443191 
L 257.279221 316.682393 
L 272.376623 316.682393 
L 273.886364 317.921596 
L 275.396104 317.921596 
L 276.905844 316.682393 
L 282.944805 316.682393 
L 284.454545 317.921596 
L 285.964286 316.682393 
L 287.474026 316.682393 
L 288.983766 315.443191 
L 292.003247 317.921596 
L 293.512987 316.682393 
L 298.042208 316.682393 
L 299.551948 317.921596 
L 301.061688 317.921596 
L 302.571429 316.682393 
L 304.081169 317.921596 
L 311.62987 317.921596 
L 313.13961 316.682393 
L 319.178571 316.682393 
L 320.688312 317.921596 
L 334.275974 317.921596 
L 335.785714 316.682393 
L 337.295455 317.921596 
L 340.314935 317.921596 
L 341.824675 316.682393 
L 343.334416 317.921596 
L 344.844156 316.682393 
L 346.353896 317.921596 
L 349.373377 317.921596 
L 350.883117 316.682393 
L 352.392857 317.921596 
L 353.902597 316.682393 
L 356.922078 316.682393 
L 358.431818 317.921596 
L 367.49026 317.921596 
L 369 319.160798 
L 370.50974 317.921596 
L 372.019481 317.921596 
L 375.038961 315.443191 
L 376.548701 315.443191 
L 378.058442 316.682393 
L 379.568182 315.443191 
L 382.587662 315.443191 
L 384.097403 316.682393 
L 388.626623 316.682393 
L 390.136364 317.921596 
L 397.685065 317.921596 
L 399.194805 316.682393 
L 400.704545 317.921596 
L 402.214286 316.682393 
L 403.724026 316.682393 
L 405.233766 317.921596 
L 406.743506 316.682393 
L 408.253247 316.682393 
L 409.762987 315.443191 
L 411.272727 315.443191 
L 412.782468 316.682393 
L 414.292208 316.682393 
L 415.801948 317.921596 
L 417.311688 316.682393 
L 418.821429 316.682393 
L 420.331169 315.443191 
L 421.840909 316.682393 
L 432.409091 316.682393 
L 433.918831 315.443191 
L 435.428571 316.682393 
L 439.957792 316.682393 
L 441.467532 315.443191 
L 442.977273 316.682393 
L 444.487013 315.443191 
L 445.996753 317.921596 
L 452.035714 317.921596 
L 453.545455 319.160798 
L 456.564935 319.160798 
L 458.074675 317.921596 
L 465.623377 317.921596 
L 467.133117 316.682393 
L 468.642857 316.682393 
L 470.152597 317.921596 
L 489.779221 317.921596 
L 491.288961 316.682393 
L 495.818182 316.682393 
L 497.327922 317.921596 
L 498.837662 316.682393 
L 500.347403 317.921596 
L 507.896104 317.921596 
L 509.405844 316.682393 
L 510.915584 316.682393 
L 512.425325 317.921596 
L 526.012987 317.921596 
L 527.522727 316.682393 
L 532.051948 316.682393 
L 533.561688 317.921596 
L 545.63961 317.921596 
L 547.149351 316.682393 
L 548.659091 317.921596 
L 550.168831 316.682393 
L 551.678571 317.921596 
L 553.188312 317.921596 
L 554.698052 316.682393 
L 556.207792 320.4 
L 562.246753 320.4 
L 563.756494 317.921596 
L 566.775974 317.921596 
L 568.285714 316.682393 
L 575.834416 316.682393 
L 577.344156 317.921596 
L 580.363636 317.921596 
L 581.873377 319.160798 
L 583.383117 319.160798 
L 584.892857 317.921596 
L 586.402597 317.921596 
L 587.912338 319.160798 
L 592.441558 319.160798 
L 593.951299 317.921596 
L 599.99026 317.921596 
L 601.5 315.443191 
L 606.029221 315.443191 
L 609.048701 317.921596 
L 612.068182 315.443191 
L 613.577922 316.682393 
L 615.087662 314.203989 
L 616.597403 315.443191 
L 618.107143 315.443191 
L 619.616883 317.921596 
L 622.636364 317.921596 
L 622.636364 317.921596 
" clip-path="url(#p3fc829716d)" style="fill: none; stroke: #8c564b; stroke-width: 1.5; stroke-linecap: square"/>
   </g>
   <g id="line2d_24">
    <path d="M 115.363636 319.160798 
L 148.577922 319.160798 
L 150.087662 317.921596 
L 151.597403 319.160798 
L 171.224026 319.160798 
L 172.733766 317.921596 
L 174.243506 319.160798 
L 175.753247 319.160798 
L 177.262987 317.921596 
L 178.772727 319.160798 
L 187.831169 319.160798 
L 189.340909 317.921596 
L 190.850649 317.921596 
L 192.36039 316.682393 
L 195.37987 319.160798 
L 196.88961 317.921596 
L 198.399351 319.160798 
L 199.909091 316.682393 
L 201.418831 319.160798 
L 211.987013 319.160798 
L 213.496753 317.921596 
L 215.006494 319.160798 
L 224.064935 319.160798 
L 225.574675 272.071114 
L 227.084416 310.486382 
L 228.594156 319.160798 
L 237.652597 319.160798 
L 239.162338 317.921596 
L 240.672078 319.160798 
L 248.220779 319.160798 
L 249.730519 317.921596 
L 251.24026 319.160798 
L 255.769481 319.160798 
L 257.279221 320.4 
L 335.785714 320.4 
L 337.295455 319.160798 
L 372.019481 319.160798 
L 373.529221 317.921596 
L 375.038961 319.160798 
L 385.607143 319.160798 
L 387.116883 317.921596 
L 388.626623 319.160798 
L 396.175325 319.160798 
L 397.685065 317.921596 
L 399.194805 317.921596 
L 400.704545 319.160798 
L 402.214286 317.921596 
L 403.724026 319.160798 
L 415.801948 319.160798 
L 417.311688 317.921596 
L 418.821429 319.160798 
L 439.957792 319.160798 
L 441.467532 317.921596 
L 442.977273 319.160798 
L 455.055195 319.160798 
L 456.564935 317.921596 
L 458.074675 317.921596 
L 459.584416 319.160798 
L 461.094156 317.921596 
L 462.603896 319.160798 
L 480.720779 319.160798 
L 482.230519 317.921596 
L 483.74026 319.160798 
L 497.327922 319.160798 
L 498.837662 317.921596 
L 500.347403 319.160798 
L 553.188312 319.160798 
L 554.698052 316.682393 
L 556.207792 319.160798 
L 583.383117 319.160798 
L 584.892857 317.921596 
L 586.402597 319.160798 
L 601.5 319.160798 
L 603.00974 317.921596 
L 604.519481 319.160798 
L 610.558442 319.160798 
L 612.068182 317.921596 
L 613.577922 319.160798 
L 622.636364 319.160798 
L 622.636364 319.160798 
" clip-path="url(#p3fc829716d)" style="fill: none; stroke: #e377c2; stroke-width: 1.5; stroke-linecap: square"/>
   </g>
   <g id="line2d_25">
    <path d="M 115.363636 315.443191 
L 116.873377 315.443191 
L 119.892857 317.921596 
L 127.441558 317.921596 
L 128.951299 315.443191 
L 130.461039 316.682393 
L 133.480519 316.682393 
L 134.99026 317.921596 
L 136.5 316.682393 
L 150.087662 316.682393 
L 151.597403 317.921596 
L 156.126623 317.921596 
L 157.636364 316.682393 
L 159.146104 317.921596 
L 165.185065 317.921596 
L 166.694805 316.682393 
L 187.831169 316.682393 
L 189.340909 310.486382 
L 190.850649 316.682393 
L 192.36039 309.24718 
L 193.87013 316.682393 
L 198.399351 316.682393 
L 199.909091 312.964787 
L 201.418831 316.682393 
L 202.928571 316.682393 
L 204.438312 317.921596 
L 205.948052 317.921596 
L 207.457792 316.682393 
L 208.967532 316.682393 
L 210.477273 317.921596 
L 213.496753 315.443191 
L 216.516234 317.921596 
L 218.025974 315.443191 
L 221.045455 317.921596 
L 222.555195 316.682393 
L 224.064935 317.921596 
L 225.574675 286.941541 
L 227.084416 317.921596 
L 228.594156 315.443191 
L 230.103896 317.921596 
L 231.613636 316.682393 
L 234.633117 316.682393 
L 236.142857 317.921596 
L 237.652597 317.921596 
L 239.162338 316.682393 
L 242.181818 316.682393 
L 243.691558 317.921596 
L 248.220779 317.921596 
L 249.730519 316.682393 
L 251.24026 317.921596 
L 252.75 317.921596 
L 254.25974 316.682393 
L 257.279221 316.682393 
L 258.788961 317.921596 
L 260.298701 316.682393 
L 261.808442 317.921596 
L 263.318182 317.921596 
L 264.827922 316.682393 
L 279.925325 316.682393 
L 281.435065 315.443191 
L 282.944805 315.443191 
L 284.454545 316.682393 
L 285.964286 316.682393 
L 288.983766 314.203989 
L 290.493506 316.682393 
L 298.042208 316.682393 
L 299.551948 317.921596 
L 301.061688 316.682393 
L 302.571429 316.682393 
L 304.081169 317.921596 
L 305.590909 317.921596 
L 307.100649 316.682393 
L 325.217532 316.682393 
L 326.727273 315.443191 
L 328.237013 316.682393 
L 331.256494 316.682393 
L 332.766234 317.921596 
L 334.275974 317.921596 
L 337.295455 315.443191 
L 338.805195 315.443191 
L 340.314935 316.682393 
L 341.824675 316.682393 
L 343.334416 317.921596 
L 344.844156 316.682393 
L 346.353896 317.921596 
L 349.373377 317.921596 
L 350.883117 315.443191 
L 353.902597 317.921596 
L 356.922078 317.921596 
L 358.431818 316.682393 
L 359.941558 317.921596 
L 369 317.921596 
L 370.50974 315.443191 
L 372.019481 317.921596 
L 373.529221 316.682393 
L 402.214286 316.682393 
L 403.724026 315.443191 
L 405.233766 316.682393 
L 414.292208 316.682393 
L 415.801948 317.921596 
L 417.311688 316.682393 
L 418.821429 317.921596 
L 427.87987 317.921596 
L 429.38961 316.682393 
L 458.074675 316.682393 
L 459.584416 315.443191 
L 461.094156 315.443191 
L 462.603896 316.682393 
L 470.152597 316.682393 
L 471.662338 317.921596 
L 473.172078 316.682393 
L 483.74026 316.682393 
L 485.25 317.921596 
L 486.75974 317.921596 
L 488.269481 316.682393 
L 504.876623 316.682393 
L 506.386364 317.921596 
L 507.896104 316.682393 
L 548.659091 316.682393 
L 550.168831 315.443191 
L 551.678571 316.682393 
L 553.188312 316.682393 
L 554.698052 315.443191 
L 557.717532 317.921596 
L 559.227273 316.682393 
L 560.737013 317.921596 
L 562.246753 317.921596 
L 563.756494 316.682393 
L 569.795455 316.682393 
L 571.305195 317.921596 
L 572.814935 316.682393 
L 580.363636 316.682393 
L 581.873377 317.921596 
L 583.383117 316.682393 
L 610.558442 316.682393 
L 612.068182 312.964787 
L 613.577922 316.682393 
L 619.616883 316.682393 
L 621.126623 317.921596 
L 622.636364 316.682393 
L 622.636364 316.682393 
" clip-path="url(#p3fc829716d)" style="fill: none; stroke: #7f7f7f; stroke-width: 1.5; stroke-linecap: square"/>
   </g>
   <g id="line2d_26">
    <path d="M 115.363636 320.4 
L 116.873377 319.160798 
L 118.383117 320.4 
L 127.441558 320.4 
L 128.951299 319.160798 
L 130.461039 319.160798 
L 131.970779 320.4 
L 153.107143 320.4 
L 154.616883 319.160798 
L 156.126623 320.4 
L 157.636364 319.160798 
L 159.146104 320.4 
L 180.282468 320.4 
L 181.792208 319.160798 
L 183.301948 320.4 
L 187.831169 320.4 
L 189.340909 319.160798 
L 201.418831 319.160798 
L 202.928571 320.4 
L 204.438312 320.4 
L 205.948052 319.160798 
L 207.457792 320.4 
L 208.967532 320.4 
L 210.477273 319.160798 
L 211.987013 320.4 
L 224.064935 320.4 
L 225.574675 316.682393 
L 227.084416 319.160798 
L 228.594156 320.4 
L 231.613636 320.4 
L 233.123377 319.160798 
L 234.633117 320.4 
L 236.142857 320.4 
L 237.652597 319.160798 
L 239.162338 320.4 
L 240.672078 319.160798 
L 242.181818 320.4 
L 248.220779 320.4 
L 249.730519 319.160798 
L 251.24026 320.4 
L 252.75 320.4 
L 254.25974 319.160798 
L 255.769481 320.4 
L 293.512987 320.4 
L 295.022727 319.160798 
L 296.532468 320.4 
L 340.314935 320.4 
L 341.824675 319.160798 
L 343.334416 320.4 
L 344.844156 319.160798 
L 346.353896 320.4 
L 356.922078 320.4 
L 358.431818 319.160798 
L 359.941558 320.4 
L 372.019481 320.4 
L 373.529221 319.160798 
L 375.038961 320.4 
L 376.548701 319.160798 
L 378.058442 320.4 
L 405.233766 320.4 
L 406.743506 319.160798 
L 408.253247 320.4 
L 483.74026 320.4 
L 485.25 319.160798 
L 486.75974 320.4 
L 553.188312 320.4 
L 554.698052 314.203989 
L 556.207792 319.160798 
L 557.717532 320.4 
L 559.227273 319.160798 
L 560.737013 320.4 
L 601.5 320.4 
L 603.00974 319.160798 
L 604.519481 320.4 
L 622.636364 320.4 
L 622.636364 320.4 
" clip-path="url(#p3fc829716d)" style="fill: none; stroke: #bcbd22; stroke-width: 1.5; stroke-linecap: square"/>
   </g>
   <g id="patch_3">
    <path d="M 90 320.4 
L 90 43.2 
" style="fill: none; stroke: #000000; stroke-width: 0.8; stroke-linejoin: miter; stroke-linecap: square"/>
   </g>
   <g id="patch_4">
    <path d="M 648 320.4 
L 648 43.2 
" style="fill: none; stroke: #000000; stroke-width: 0.8; stroke-linejoin: miter; stroke-linecap: square"/>
   </g>
   <g id="patch_5">
    <path d="M 90 320.4 
L 648 320.4 
" style="fill: none; stroke: #000000; stroke-width: 0.8; stroke-linejoin: miter; stroke-linecap: square"/>
   </g>
   <g id="patch_6">
    <path d="M 90 43.2 
L 648 43.2 
" style="fill: none; stroke: #000000; stroke-width: 0.8; stroke-linejoin: miter; stroke-linecap: square"/>
   </g>
   <g id="text_20">
    <!-- Runtime Metrics Over Iterations -->
    <g transform="translate(273.432187 37.2) scale(0.12 -0.12)">
     <defs>
      <path id="DejaVuSans-52" d="M 2841 2188 
Q 3044 2119 3236 1894 
Q 3428 1669 3622 1275 
L 4263 0 
L 3584 0 
L 2988 1197 
Q 2756 1666 2539 1819 
Q 2322 1972 1947 1972 
L 1259 1972 
L 1259 0 
L 628 0 
L 628 4666 
L 2053 4666 
Q 2853 4666 3247 4331 
Q 3641 3997 3641 3322 
Q 3641 2881 3436 2590 
Q 3231 2300 2841 2188 
z
M 1259 4147 
L 1259 2491 
L 2053 2491 
Q 2509 2491 2742 2702 
Q 2975 2913 2975 3322 
Q 2975 3731 2742 3939 
Q 2509 4147 2053 4147 
L 1259 4147 
z
" transform="scale(0.015625)"/>
      <path id="DejaVuSans-75" d="M 544 1381 
L 544 3500 
L 1119 3500 
L 1119 1403 
Q 1119 906 1312 657 
Q 1506 409 1894 409 
Q 2359 409 2629 706 
Q 2900 1003 2900 1516 
L 2900 3500 
L 3475 3500 
L 3475 0 
L 2900 0 
L 2900 538 
Q 2691 219 2414 64 
Q 2138 -91 1772 -91 
Q 1169 -91 856 284 
Q 544 659 544 1381 
z
M 1991 3584 
L 1991 3584 
z
" transform="scale(0.015625)"/>
      <path id="DejaVuSans-4d" d="M 628 4666 
L 1569 4666 
L 2759 1491 
L 3956 4666 
L 4897 4666 
L 4897 0 
L 4281 0 
L 4281 4097 
L 3078 897 
L 2444 897 
L 1241 4097 
L 1241 0 
L 628 0 
L 628 4666 
z
" transform="scale(0.015625)"/>
      <path id="DejaVuSans-63" d="M 3122 3366 
L 3122 2828 
Q 2878 2963 2633 3030 
Q 2388 3097 2138 3097 
Q 1578 3097 1268 2742 
Q 959 2388 959 1747 
Q 959 1106 1268 751 
Q 1578 397 2138 397 
Q 2388 397 2633 464 
Q 2878 531 3122 666 
L 3122 134 
Q 2881 22 2623 -34 
Q 2366 -91 2075 -91 
Q 1284 -91 818 406 
Q 353 903 353 1747 
Q 353 2603 823 3093 
Q 1294 3584 2113 3584 
Q 2378 3584 2631 3529 
Q 2884 3475 3122 3366 
z
" transform="scale(0.015625)"/>
      <path id="DejaVuSans-4f" d="M 2522 4238 
Q 1834 4238 1429 3725 
Q 1025 3213 1025 2328 
Q 1025 1447 1429 934 
Q 1834 422 2522 422 
Q 3209 422 3611 934 
Q 4013 1447 4013 2328 
Q 4013 3213 3611 3725 
Q 3209 4238 2522 4238 
z
M 2522 4750 
Q 3503 4750 4090 4092 
Q 4678 3434 4678 2328 
Q 4678 1225 4090 567 
Q 3503 -91 2522 -91 
Q 1538 -91 948 565 
Q 359 1222 359 2328 
Q 359 3434 948 4092 
Q 1538 4750 2522 4750 
z
" transform="scale(0.015625)"/>
      <path id="DejaVuSans-76" d="M 191 3500 
L 800 3500 
L 1894 563 
L 2988 3500 
L 3597 3500 
L 2284 0 
L 1503 0 
L 191 3500 
z
" transform="scale(0.015625)"/>
     </defs>
     <use xlink:href="#DejaVuSans-52"/>
     <use xlink:href="#DejaVuSans-75" transform="translate(64.982422 0)"/>
     <use xlink:href="#DejaVuSans-6e" transform="translate(128.361328 0)"/>
     <use xlink:href="#DejaVuSans-74" transform="translate(191.740234 0)"/>
     <use xlink:href="#DejaVuSans-69" transform="translate(230.949219 0)"/>
     <use xlink:href="#DejaVuSans-6d" transform="translate(258.732422 0)"/>
     <use xlink:href="#DejaVuSans-65" transform="translate(356.144531 0)"/>
     <use xlink:href="#DejaVuSans-20" transform="translate(417.667969 0)"/>
     <use xlink:href="#DejaVuSans-4d" transform="translate(449.455078 0)"/>
     <use xlink:href="#DejaVuSans-65" transform="translate(535.734375 0)"/>
     <use xlink:href="#DejaVuSans-74" transform="translate(597.257812 0)"/>
     <use xlink:href="#DejaVuSans-72" transform="translate(636.466797 0)"/>
     <use xlink:href="#DejaVuSans-69" transform="translate(677.580078 0)"/>
     <use xlink:href="#DejaVuSans-63" transform="translate(705.363281 0)"/>
     <use xlink:href="#DejaVuSans-73" transform="translate(760.34375 0)"/>
     <use xlink:href="#DejaVuSans-20" transform="translate(812.443359 0)"/>
     <use xlink:href="#DejaVuSans-4f" transform="translate(844.230469 0)"/>
     <use xlink:href="#DejaVuSans-76" transform="translate(922.941406 0)"/>
     <use xlink:href="#DejaVuSans-65" transform="translate(982.121094 0)"/>
     <use xlink:href="#DejaVuSans-72" transform="translate(1043.644531 0)"/>
     <use xlink:href="#DejaVuSans-20" transform="translate(1084.757812 0)"/>
     <use xlink:href="#DejaVuSans-49" transform="translate(1116.544922 0)"/>
     <use xlink:href="#DejaVuSans-74" transform="translate(1146.037109 0)"/>
     <use xlink:href="#DejaVuSans-65" transform="translate(1185.246094 0)"/>
     <use xlink:href="#DejaVuSans-72" transform="translate(1246.769531 0)"/>
     <use xlink:href="#DejaVuSans-61" transform="translate(1287.882812 0)"/>
     <use xlink:href="#DejaVuSans-74" transform="translate(1349.162109 0)"/>
     <use xlink:href="#DejaVuSans-69" transform="translate(1388.371094 0)"/>
     <use xlink:href="#DejaVuSans-6f" transform="translate(1416.154297 0)"/>
     <use xlink:href="#DejaVuSans-6e" transform="translate(1477.335938 0)"/>
     <use xlink:href="#DejaVuSans-73" transform="translate(1540.714844 0)"/>
    </g>
   </g>
   <g id="legend_1">
    <g id="patch_7">
     <path d="M 515.807812 183.303125 
L 641 183.303125 
Q 643 183.303125 643 181.303125 
L 643 50.2 
Q 643 48.2 641 48.2 
L 515.807812 48.2 
Q 513.807812 48.2 513.807812 50.2 
L 513.807812 181.303125 
Q 513.807812 183.303125 515.807812 183.303125 
z
" style="fill: #ffffff; opacity: 0.8; stroke: #cccccc; stroke-linejoin: miter"/>
    </g>
    <g id="line2d_27">
     <path d="M 517.807812 56.298437 
L 527.807812 56.298437 
L 537.807812 56.298437 
" style="fill: none; stroke: #1f77b4; stroke-width: 1.5; stroke-linecap: square"/>
    </g>
    <g id="text_21">
     <!-- Total -->
     <g transform="translate(545.807812 59.798437) scale(0.1 -0.1)">
      <defs>
       <path id="DejaVuSans-6c" d="M 603 4863 
L 1178 4863 
L 1178 0 
L 603 0 
L 603 4863 
z
" transform="scale(0.015625)"/>
      </defs>
      <use xlink:href="#DejaVuSans-54"/>
      <use xlink:href="#DejaVuSans-6f" transform="translate(44.083984 0)"/>
      <use xlink:href="#DejaVuSans-74" transform="translate(105.265625 0)"/>
      <use xlink:href="#DejaVuSans-61" transform="translate(144.474609 0)"/>
      <use xlink:href="#DejaVuSans-6c" transform="translate(205.753906 0)"/>
     </g>
    </g>
    <g id="line2d_28">
     <path d="M 517.807812 70.976562 
L 527.807812 70.976562 
L 537.807812 70.976562 
" style="fill: none; stroke: #ff7f0e; stroke-width: 1.5; stroke-linecap: square"/>
    </g>
    <g id="text_22">
     <!-- Frame Read -->
     <g transform="translate(545.807812 74.476562) scale(0.1 -0.1)">
      <defs>
       <path id="DejaVuSans-46" d="M 628 4666 
L 3309 4666 
L 3309 4134 
L 1259 4134 
L 1259 2759 
L 3109 2759 
L 3109 2228 
L 1259 2228 
L 1259 0 
L 628 0 
L 628 4666 
z
" transform="scale(0.015625)"/>
       <path id="DejaVuSans-64" d="M 2906 2969 
L 2906 4863 
L 3481 4863 
L 3481 0 
L 2906 0 
L 2906 525 
Q 2725 213 2448 61 
Q 2172 -91 1784 -91 
Q 1150 -91 751 415 
Q 353 922 353 1747 
Q 353 2572 751 3078 
Q 1150 3584 1784 3584 
Q 2172 3584 2448 3432 
Q 2725 3281 2906 2969 
z
M 947 1747 
Q 947 1113 1208 752 
Q 1469 391 1925 391 
Q 2381 391 2643 752 
Q 2906 1113 2906 1747 
Q 2906 2381 2643 2742 
Q 2381 3103 1925 3103 
Q 1469 3103 1208 2742 
Q 947 2381 947 1747 
z
" transform="scale(0.015625)"/>
      </defs>
      <use xlink:href="#DejaVuSans-46"/>
      <use xlink:href="#DejaVuSans-72" transform="translate(50.269531 0)"/>
      <use xlink:href="#DejaVuSans-61" transform="translate(91.382812 0)"/>
      <use xlink:href="#DejaVuSans-6d" transform="translate(152.662109 0)"/>
      <use xlink:href="#DejaVuSans-65" transform="translate(250.074219 0)"/>
      <use xlink:href="#DejaVuSans-20" transform="translate(311.597656 0)"/>
      <use xlink:href="#DejaVuSans-52" transform="translate(343.384766 0)"/>
      <use xlink:href="#DejaVuSans-65" transform="translate(408.367188 0)"/>
      <use xlink:href="#DejaVuSans-61" transform="translate(469.890625 0)"/>
      <use xlink:href="#DejaVuSans-64" transform="translate(531.169922 0)"/>
     </g>
    </g>
    <g id="line2d_29">
     <path d="M 517.807812 85.654687 
L 527.807812 85.654687 
L 537.807812 85.654687 
" style="fill: none; stroke: #2ca02c; stroke-width: 1.5; stroke-linecap: square"/>
    </g>
    <g id="text_23">
     <!-- Warp -->
     <g transform="translate(545.807812 89.154687) scale(0.1 -0.1)">
      <defs>
       <path id="DejaVuSans-57" d="M 213 4666 
L 850 4666 
L 1831 722 
L 2809 4666 
L 3519 4666 
L 4500 722 
L 5478 4666 
L 6119 4666 
L 4947 0 
L 4153 0 
L 3169 4050 
L 2175 0 
L 1381 0 
L 213 4666 
z
" transform="scale(0.015625)"/>
       <path id="DejaVuSans-70" d="M 1159 525 
L 1159 -1331 
L 581 -1331 
L 581 3500 
L 1159 3500 
L 1159 2969 
Q 1341 3281 1617 3432 
Q 1894 3584 2278 3584 
Q 2916 3584 3314 3078 
Q 3713 2572 3713 1747 
Q 3713 922 3314 415 
Q 2916 -91 2278 -91 
Q 1894 -91 1617 61 
Q 1341 213 1159 525 
z
M 3116 1747 
Q 3116 2381 2855 2742 
Q 2594 3103 2138 3103 
Q 1681 3103 1420 2742 
Q 1159 2381 1159 1747 
Q 1159 1113 1420 752 
Q 1681 391 2138 391 
Q 2594 391 2855 752 
Q 3116 1113 3116 1747 
z
" transform="scale(0.015625)"/>
      </defs>
      <use xlink:href="#DejaVuSans-57"/>
      <use xlink:href="#DejaVuSans-61" transform="translate(92.501953 0)"/>
      <use xlink:href="#DejaVuSans-72" transform="translate(153.78125 0)"/>
      <use xlink:href="#DejaVuSans-70" transform="translate(194.894531 0)"/>
     </g>
    </g>
    <g id="line2d_30">
     <path d="M 517.807812 100.332812 
L 527.807812 100.332812 
L 537.807812 100.332812 
" style="fill: none; stroke: #d62728; stroke-width: 1.5; stroke-linecap: square"/>
    </g>
    <g id="text_24">
     <!-- Object Detection -->
     <g transform="translate(545.807812 103.832812) scale(0.1 -0.1)">
      <defs>
       <path id="DejaVuSans-62" d="M 3116 1747 
Q 3116 2381 2855 2742 
Q 2594 3103 2138 3103 
Q 1681 3103 1420 2742 
Q 1159 2381 1159 1747 
Q 1159 1113 1420 752 
Q 1681 391 2138 391 
Q 2594 391 2855 752 
Q 3116 1113 3116 1747 
z
M 1159 2969 
Q 1341 3281 1617 3432 
Q 1894 3584 2278 3584 
Q 2916 3584 3314 3078 
Q 3713 2572 3713 1747 
Q 3713 922 3314 415 
Q 2916 -91 2278 -91 
Q 1894 -91 1617 61 
Q 1341 213 1159 525 
L 1159 0 
L 581 0 
L 581 4863 
L 1159 4863 
L 1159 2969 
z
" transform="scale(0.015625)"/>
       <path id="DejaVuSans-6a" d="M 603 3500 
L 1178 3500 
L 1178 -63 
Q 1178 -731 923 -1031 
Q 669 -1331 103 -1331 
L -116 -1331 
L -116 -844 
L 38 -844 
Q 366 -844 484 -692 
Q 603 -541 603 -63 
L 603 3500 
z
M 603 4863 
L 1178 4863 
L 1178 4134 
L 603 4134 
L 603 4863 
z
" transform="scale(0.015625)"/>
       <path id="DejaVuSans-44" d="M 1259 4147 
L 1259 519 
L 2022 519 
Q 2988 519 3436 956 
Q 3884 1394 3884 2338 
Q 3884 3275 3436 3711 
Q 2988 4147 2022 4147 
L 1259 4147 
z
M 628 4666 
L 1925 4666 
Q 3281 4666 3915 4102 
Q 4550 3538 4550 2338 
Q 4550 1131 3912 565 
Q 3275 0 1925 0 
L 628 0 
L 628 4666 
z
" transform="scale(0.015625)"/>
      </defs>
      <use xlink:href="#DejaVuSans-4f"/>
      <use xlink:href="#DejaVuSans-62" transform="translate(78.710938 0)"/>
      <use xlink:href="#DejaVuSans-6a" transform="translate(142.1875 0)"/>
      <use xlink:href="#DejaVuSans-65" transform="translate(169.970703 0)"/>
      <use xlink:href="#DejaVuSans-63" transform="translate(231.494141 0)"/>
      <use xlink:href="#DejaVuSans-74" transform="translate(286.474609 0)"/>
      <use xlink:href="#DejaVuSans-20" transform="translate(325.683594 0)"/>
      <use xlink:href="#DejaVuSans-44" transform="translate(357.470703 0)"/>
      <use xlink:href="#DejaVuSans-65" transform="translate(434.472656 0)"/>
      <use xlink:href="#DejaVuSans-74" transform="translate(495.996094 0)"/>
      <use xlink:href="#DejaVuSans-65" transform="translate(535.205078 0)"/>
      <use xlink:href="#DejaVuSans-63" transform="translate(596.728516 0)"/>
      <use xlink:href="#DejaVuSans-74" transform="translate(651.708984 0)"/>
      <use xlink:href="#DejaVuSans-69" transform="translate(690.917969 0)"/>
      <use xlink:href="#DejaVuSans-6f" transform="translate(718.701172 0)"/>
      <use xlink:href="#DejaVuSans-6e" transform="translate(779.882812 0)"/>
     </g>
    </g>
    <g id="line2d_31">
     <path d="M 517.807812 115.010937 
L 527.807812 115.010937 
L 537.807812 115.010937 
" style="fill: none; stroke: #9467bd; stroke-width: 1.5; stroke-linecap: square"/>
    </g>
    <g id="text_25">
     <!-- Color Quantization -->
     <g transform="translate(545.807812 118.510937) scale(0.1 -0.1)">
      <defs>
       <path id="DejaVuSans-43" d="M 4122 4306 
L 4122 3641 
Q 3803 3938 3442 4084 
Q 3081 4231 2675 4231 
Q 1875 4231 1450 3742 
Q 1025 3253 1025 2328 
Q 1025 1406 1450 917 
Q 1875 428 2675 428 
Q 3081 428 3442 575 
Q 3803 722 4122 1019 
L 4122 359 
Q 3791 134 3420 21 
Q 3050 -91 2638 -91 
Q 1578 -91 968 557 
Q 359 1206 359 2328 
Q 359 3453 968 4101 
Q 1578 4750 2638 4750 
Q 3056 4750 3426 4639 
Q 3797 4528 4122 4306 
z
" transform="scale(0.015625)"/>
       <path id="DejaVuSans-51" d="M 2522 4238 
Q 1834 4238 1429 3725 
Q 1025 3213 1025 2328 
Q 1025 1447 1429 934 
Q 1834 422 2522 422 
Q 3209 422 3611 934 
Q 4013 1447 4013 2328 
Q 4013 3213 3611 3725 
Q 3209 4238 2522 4238 
z
M 3406 84 
L 4238 -825 
L 3475 -825 
L 2784 -78 
Q 2681 -84 2626 -87 
Q 2572 -91 2522 -91 
Q 1538 -91 948 567 
Q 359 1225 359 2328 
Q 359 3434 948 4092 
Q 1538 4750 2522 4750 
Q 3503 4750 4090 4092 
Q 4678 3434 4678 2328 
Q 4678 1516 4351 937 
Q 4025 359 3406 84 
z
" transform="scale(0.015625)"/>
       <path id="DejaVuSans-7a" d="M 353 3500 
L 3084 3500 
L 3084 2975 
L 922 459 
L 3084 459 
L 3084 0 
L 275 0 
L 275 525 
L 2438 3041 
L 353 3041 
L 353 3500 
z
" transform="scale(0.015625)"/>
      </defs>
      <use xlink:href="#DejaVuSans-43"/>
      <use xlink:href="#DejaVuSans-6f" transform="translate(69.824219 0)"/>
      <use xlink:href="#DejaVuSans-6c" transform="translate(131.005859 0)"/>
      <use xlink:href="#DejaVuSans-6f" transform="translate(158.789062 0)"/>
      <use xlink:href="#DejaVuSans-72" transform="translate(219.970703 0)"/>
      <use xlink:href="#DejaVuSans-20" transform="translate(261.083984 0)"/>
      <use xlink:href="#DejaVuSans-51" transform="translate(292.871094 0)"/>
      <use xlink:href="#DejaVuSans-75" transform="translate(371.582031 0)"/>
      <use xlink:href="#DejaVuSans-61" transform="translate(434.960938 0)"/>
      <use xlink:href="#DejaVuSans-6e" transform="translate(496.240234 0)"/>
      <use xlink:href="#DejaVuSans-74" transform="translate(559.619141 0)"/>
      <use xlink:href="#DejaVuSans-69" transform="translate(598.828125 0)"/>
      <use xlink:href="#DejaVuSans-7a" transform="translate(626.611328 0)"/>
      <use xlink:href="#DejaVuSans-61" transform="translate(679.101562 0)"/>
      <use xlink:href="#DejaVuSans-74" transform="translate(740.380859 0)"/>
      <use xlink:href="#DejaVuSans-69" transform="translate(779.589844 0)"/>
      <use xlink:href="#DejaVuSans-6f" transform="translate(807.373047 0)"/>
      <use xlink:href="#DejaVuSans-6e" transform="translate(868.554688 0)"/>
     </g>
    </g>
    <g id="line2d_32">
     <path d="M 517.807812 129.689062 
L 527.807812 129.689062 
L 537.807812 129.689062 
" style="fill: none; stroke: #8c564b; stroke-width: 1.5; stroke-linecap: square"/>
    </g>
    <g id="text_26">
     <!-- Corner Detection -->
     <g transform="translate(545.807812 133.189062) scale(0.1 -0.1)">
      <use xlink:href="#DejaVuSans-43"/>
      <use xlink:href="#DejaVuSans-6f" transform="translate(69.824219 0)"/>
      <use xlink:href="#DejaVuSans-72" transform="translate(131.005859 0)"/>
      <use xlink:href="#DejaVuSans-6e" transform="translate(170.369141 0)"/>
      <use xlink:href="#DejaVuSans-65" transform="translate(233.748047 0)"/>
      <use xlink:href="#DejaVuSans-72" transform="translate(295.271484 0)"/>
      <use xlink:href="#DejaVuSans-20" transform="translate(336.384766 0)"/>
      <use xlink:href="#DejaVuSans-44" transform="translate(368.171875 0)"/>
      <use xlink:href="#DejaVuSans-65" transform="translate(445.173828 0)"/>
      <use xlink:href="#DejaVuSans-74" transform="translate(506.697266 0)"/>
      <use xlink:href="#DejaVuSans-65" transform="translate(545.90625 0)"/>
      <use xlink:href="#DejaVuSans-63" transform="translate(607.429688 0)"/>
      <use xlink:href="#DejaVuSans-74" transform="translate(662.410156 0)"/>
      <use xlink:href="#DejaVuSans-69" transform="translate(701.619141 0)"/>
      <use xlink:href="#DejaVuSans-6f" transform="translate(729.402344 0)"/>
      <use xlink:href="#DejaVuSans-6e" transform="translate(790.583984 0)"/>
     </g>
    </g>
    <g id="line2d_33">
     <path d="M 517.807812 144.367187 
L 527.807812 144.367187 
L 537.807812 144.367187 
" style="fill: none; stroke: #e377c2; stroke-width: 1.5; stroke-linecap: square"/>
    </g>
    <g id="text_27">
     <!-- Algorithm -->
     <g transform="translate(545.807812 147.867187) scale(0.1 -0.1)">
      <defs>
       <path id="DejaVuSans-41" d="M 2188 4044 
L 1331 1722 
L 3047 1722 
L 2188 4044 
z
M 1831 4666 
L 2547 4666 
L 4325 0 
L 3669 0 
L 3244 1197 
L 1141 1197 
L 716 0 
L 50 0 
L 1831 4666 
z
" transform="scale(0.015625)"/>
       <path id="DejaVuSans-67" d="M 2906 1791 
Q 2906 2416 2648 2759 
Q 2391 3103 1925 3103 
Q 1463 3103 1205 2759 
Q 947 2416 947 1791 
Q 947 1169 1205 825 
Q 1463 481 1925 481 
Q 2391 481 2648 825 
Q 2906 1169 2906 1791 
z
M 3481 434 
Q 3481 -459 3084 -895 
Q 2688 -1331 1869 -1331 
Q 1566 -1331 1297 -1286 
Q 1028 -1241 775 -1147 
L 775 -588 
Q 1028 -725 1275 -790 
Q 1522 -856 1778 -856 
Q 2344 -856 2625 -561 
Q 2906 -266 2906 331 
L 2906 616 
Q 2728 306 2450 153 
Q 2172 0 1784 0 
Q 1141 0 747 490 
Q 353 981 353 1791 
Q 353 2603 747 3093 
Q 1141 3584 1784 3584 
Q 2172 3584 2450 3431 
Q 2728 3278 2906 2969 
L 2906 3500 
L 3481 3500 
L 3481 434 
z
" transform="scale(0.015625)"/>
       <path id="DejaVuSans-68" d="M 3513 2113 
L 3513 0 
L 2938 0 
L 2938 2094 
Q 2938 2591 2744 2837 
Q 2550 3084 2163 3084 
Q 1697 3084 1428 2787 
Q 1159 2491 1159 1978 
L 1159 0 
L 581 0 
L 581 4863 
L 1159 4863 
L 1159 2956 
Q 1366 3272 1645 3428 
Q 1925 3584 2291 3584 
Q 2894 3584 3203 3211 
Q 3513 2838 3513 2113 
z
" transform="scale(0.015625)"/>
      </defs>
      <use xlink:href="#DejaVuSans-41"/>
      <use xlink:href="#DejaVuSans-6c" transform="translate(68.408203 0)"/>
      <use xlink:href="#DejaVuSans-67" transform="translate(96.191406 0)"/>
      <use xlink:href="#DejaVuSans-6f" transform="translate(159.667969 0)"/>
      <use xlink:href="#DejaVuSans-72" transform="translate(220.849609 0)"/>
      <use xlink:href="#DejaVuSans-69" transform="translate(261.962891 0)"/>
      <use xlink:href="#DejaVuSans-74" transform="translate(289.746094 0)"/>
      <use xlink:href="#DejaVuSans-68" transform="translate(328.955078 0)"/>
      <use xlink:href="#DejaVuSans-6d" transform="translate(392.333984 0)"/>
     </g>
    </g>
    <g id="line2d_34">
     <path d="M 517.807812 159.045312 
L 527.807812 159.045312 
L 537.807812 159.045312 
" style="fill: none; stroke: #7f7f7f; stroke-width: 1.5; stroke-linecap: square"/>
    </g>
    <g id="text_28">
     <!-- Display -->
     <g transform="translate(545.807812 162.545312) scale(0.1 -0.1)">
      <defs>
       <path id="DejaVuSans-79" d="M 2059 -325 
Q 1816 -950 1584 -1140 
Q 1353 -1331 966 -1331 
L 506 -1331 
L 506 -850 
L 844 -850 
Q 1081 -850 1212 -737 
Q 1344 -625 1503 -206 
L 1606 56 
L 191 3500 
L 800 3500 
L 1894 763 
L 2988 3500 
L 3597 3500 
L 2059 -325 
z
" transform="scale(0.015625)"/>
      </defs>
      <use xlink:href="#DejaVuSans-44"/>
      <use xlink:href="#DejaVuSans-69" transform="translate(77.001953 0)"/>
      <use xlink:href="#DejaVuSans-73" transform="translate(104.785156 0)"/>
      <use xlink:href="#DejaVuSans-70" transform="translate(156.884766 0)"/>
      <use xlink:href="#DejaVuSans-6c" transform="translate(220.361328 0)"/>
      <use xlink:href="#DejaVuSans-61" transform="translate(248.144531 0)"/>
      <use xlink:href="#DejaVuSans-79" transform="translate(309.423828 0)"/>
     </g>
    </g>
    <g id="line2d_35">
     <path d="M 517.807812 173.723437 
L 527.807812 173.723437 
L 537.807812 173.723437 
" style="fill: none; stroke: #bcbd22; stroke-width: 1.5; stroke-linecap: square"/>
    </g>
    <g id="text_29">
     <!-- Other -->
     <g transform="translate(545.807812 177.223437) scale(0.1 -0.1)">
      <use xlink:href="#DejaVuSans-4f"/>
      <use xlink:href="#DejaVuSans-74" transform="translate(78.710938 0)"/>
      <use xlink:href="#DejaVuSans-68" transform="translate(117.919922 0)"/>
      <use xlink:href="#DejaVuSans-65" transform="translate(181.298828 0)"/>
      <use xlink:href="#DejaVuSans-72" transform="translate(242.822266 0)"/>
     </g>
    </g>
   </g>
  </g>
 </g>
 <defs>
  <clipPath id="p3fc829716d">
   <rect x="90" y="43.2" width="558" height="277.2"/>
  </clipPath>
 </defs>
</svg>
